<?xml version="1.0" encoding="utf-8"?>
<!-- Generator: Adobe Illustrator 24.3.0, SVG Export Plug-In . SVG Version: 6.00 Build 0)  -->
<svg version="1.1" id="レイヤー_1" xmlns="http://www.w3.org/2000/svg" xmlns:xlink="http://www.w3.org/1999/xlink" x="0px"
	 y="0px" viewBox="0 0 85 30" style="enable-background:new 0 0 85 30;" xml:space="preserve">
<style type="text/css">
	.st0{fill:#62524D;}
</style>
<g>
	<path class="st0" d="M39.51,11.82c-1.53,0-2.06,0.03-2.16,0.03c-0.17,0-0.19-0.02-0.19-0.19v-1.34c0-0.19,0.02-0.2,0.19-0.2
		c0.1,0,0.63,0.03,2.16,0.03h4.08V9.88c0-0.97-0.02-1.39-0.14-2.18c0.61,0.02,1.34,0.05,1.94,0.12c0.15,0.02,0.27,0.1,0.27,0.19
		c0,0.14-0.07,0.24-0.12,0.36c-0.05,0.17-0.1,0.46-0.1,1.34v0.44h4.33c1.53,0,2.06-0.03,2.16-0.03c0.17,0,0.19,0.02,0.19,0.2v1.34
		c0,0.17-0.02,0.19-0.19,0.19c-0.1,0-0.63-0.03-2.16-0.03h-4.33v2.11h2.48c0.25,0,0.41-0.03,0.49-0.07
		c0.07-0.03,0.15-0.07,0.22-0.07c0.12,0,0.25,0.1,0.68,0.53c0.39,0.37,0.53,0.58,0.53,0.73c0,0.14-0.08,0.19-0.24,0.31
		c-0.15,0.12-0.25,0.2-0.41,0.46c-0.92,1.44-1.94,2.64-3.11,3.62c1.7,0.95,3.77,1.53,6.32,1.92c-0.27,0.36-0.54,0.88-0.73,1.36
		c-0.12,0.34-0.17,0.44-0.36,0.44c-0.08,0-0.2-0.02-0.37-0.05c-2.62-0.59-4.72-1.38-6.44-2.52c-1.7,1.07-3.72,1.87-6.15,2.5
		c-0.17,0.05-0.29,0.07-0.37,0.07c-0.17,0-0.22-0.12-0.34-0.44c-0.19-0.48-0.46-0.92-0.7-1.21c2.5-0.51,4.5-1.14,6.14-2.04
		c-1.12-1.05-2.04-2.33-2.75-3.93c-1.16,0.02-1.6,0.03-1.68,0.03c-0.17,0-0.19-0.02-0.19-0.19v-1.31c0-0.17,0.02-0.19,0.19-0.19
		c0.1,0,0.66,0.03,2.31,0.03h2.63v-2.11H39.51z M42.28,15.54c0.65,1.19,1.43,2.12,2.35,2.89c0.99-0.78,1.82-1.73,2.52-2.89H42.28z"
		/>
	<path class="st0" d="M69.36,11.7c0-0.97-0.02-1.5-0.08-2.16c0.63,0.02,1.17,0.05,1.77,0.12c0.17,0.02,0.27,0.08,0.27,0.19
		c0,0.12-0.05,0.24-0.08,0.34c-0.08,0.22-0.12,0.54-0.12,1.67v2.4c0,1.02,0.03,1.51,0.03,1.61c0,0.19-0.02,0.2-0.17,0.2h-1.41
		c-0.19,0-0.2-0.02-0.2-0.2v-0.63h-3.48v5.24h4.03v-1.29c0-0.99-0.02-1.5-0.1-2.16c0.65,0.02,1.21,0.05,1.79,0.12
		c0.15,0.02,0.25,0.1,0.25,0.19c0,0.12-0.05,0.24-0.08,0.34c-0.08,0.22-0.12,0.54-0.12,1.67v2.06c0,0.95,0.03,1.39,0.03,1.5
		c0,0.15-0.02,0.17-0.19,0.17h-1.39c-0.17,0-0.19-0.02-0.19-0.17v-0.78h-9.67v0.87c0,0.15-0.02,0.17-0.19,0.17h-1.39
		c-0.19,0-0.2-0.02-0.2-0.17c0-0.12,0.03-0.54,0.03-1.5v-2.24c0-0.97-0.02-1.48-0.1-2.14c0.65,0.02,1.21,0.05,1.79,0.12
		c0.17,0.02,0.29,0.08,0.29,0.19c0,0.12-0.07,0.24-0.1,0.34c-0.08,0.2-0.12,0.54-0.12,1.48v1.26h3.82v-5.24h-3.28v0.7
		c0,0.17-0.02,0.19-0.19,0.19h-1.41c-0.17,0-0.19-0.02-0.19-0.19c0-0.12,0.03-0.6,0.03-1.62v-2.55c0-0.99-0.02-1.5-0.1-2.18
		c0.65,0.02,1.21,0.05,1.79,0.12c0.17,0.02,0.25,0.1,0.25,0.2c0,0.12-0.05,0.2-0.08,0.34c-0.08,0.2-0.1,0.54-0.1,1.5v1.85h3.28V9.88
		c0-1-0.03-1.53-0.12-2.19c0.65,0.02,1.28,0.07,1.87,0.14C65.96,7.84,66.07,7.9,66.07,8c0,0.12-0.05,0.2-0.1,0.34
		C65.9,8.56,65.88,8.8,65.88,9.9v3.71h3.48V11.7z"/>
</g>
<g>
	<g>
		<path class="st0" d="M20.75,2.97c-0.35-0.35-0.92-0.35-1.26,0l-12.6,12.6c-0.35,0.35-0.72,1.03-0.82,1.51l-1.8,8.48
			c-0.1,0.48,0.21,0.79,0.69,0.69l8.47-1.8c0.48-0.1,1.16-0.47,1.51-0.82l12.6-12.6c0.35-0.35,0.35-0.92,0-1.26L20.75,2.97z
			 M8.4,16.52L20.12,4.81l2.47,2.47L10.87,18.99L8.4,16.52z M13.24,22.66l-3.97,0.87l-2.28-2.28l0.87-3.97L13.24,22.66z M25.71,10.4
			L13.99,22.11l-2.47-2.47L23.24,7.93L25.71,10.4z"/>
	</g>
</g>
</svg>
