<?xml version="1.0" encoding="utf-8"?>
<!-- Generator: Adobe Illustrator 24.3.0, SVG Export Plug-In . SVG Version: 6.00 Build 0)  -->
<svg version="1.1" id="レイヤー_1" xmlns="http://www.w3.org/2000/svg" xmlns:xlink="http://www.w3.org/1999/xlink" x="0px"
	 y="0px" viewBox="0 0 100 100" style="enable-background:new 0 0 100 100;" xml:space="preserve">
<style type="text/css">
	.st0{fill:#F4A7A2;}
	.st1{fill:#FFFFFF;}
</style>
<g>
	<g>
		<path class="st0" d="M100.12,95.3c0,2.75-2.25,5-5,5h-90c-2.75,0-5-2.25-5-5v-90c0-2.75,2.25-5,5-5h90c2.75,0,5,2.25,5,5V95.3z"/>
	</g>
	<g>
		<g>
			<path class="st1" d="M26.01,34.66c0-0.45-0.02-0.66-0.06-0.92h1.32c-0.04,0.24-0.05,0.46-0.05,0.92v0.41h2.79
				c0.54,0,0.95-0.02,1.27-0.06v1.19c-0.3-0.04-0.73-0.06-1.26-0.06h-2.8v1.33h1.39c0.44,0,0.69-0.01,0.88-0.05l0.69,0.7
				c-0.11,0.14-0.28,0.37-0.49,0.68c-0.49,0.75-1.17,1.49-1.94,2.12c1.06,0.59,2.24,0.97,3.74,1.2c-0.26,0.38-0.39,0.67-0.56,1.21
				c-1.82-0.41-2.94-0.86-4.18-1.69c-1.31,0.83-2.56,1.32-4.24,1.64c-0.16-0.42-0.29-0.68-0.57-1.11c1.5-0.22,2.71-0.6,3.86-1.23
				c-0.9-0.75-1.39-1.35-1.98-2.46c-0.49,0.01-0.68,0.03-0.98,0.06V37.4c0.29,0.04,0.73,0.06,1.26,0.06H26v-1.33h-2.64
				c-0.54,0-0.94,0.02-1.26,0.06V35c0.33,0.04,0.73,0.06,1.27,0.06H26L26.01,34.66L26.01,34.66z M25.09,38.47
				c0.46,0.77,0.91,1.24,1.71,1.82c0.77-0.57,1.24-1.08,1.7-1.82H25.09z"/>
			<path class="st1" d="M37.46,34.81c0-0.5-0.02-0.76-0.06-1.03h1.3c-0.04,0.3-0.06,0.55-0.06,1.03v2.28h2.23v-1.7
				c0-0.34-0.01-0.57-0.04-0.82h1.25c-0.04,0.31-0.05,0.52-0.05,0.91v2.07c0,0.27,0.01,0.5,0.03,0.67
				c-0.23-0.02-0.48-0.03-0.73-0.03h-2.69v3.41h2.57v-1.73c0-0.35-0.01-0.62-0.05-0.88h1.26c-0.03,0.27-0.05,0.57-0.05,0.99v2.25
				c0,0.49,0.02,0.76,0.06,1.04h-1.22v-0.54h-6.19v0.54H33.8c0.04-0.31,0.06-0.62,0.06-1.04v-2.21c0-0.41-0.02-0.73-0.05-1h1.26
				c-0.04,0.25-0.05,0.48-0.05,0.9v1.69h2.45V38.2h-2.5c-0.28,0-0.5,0.01-0.75,0.03c0.02-0.23,0.03-0.43,0.03-0.67V35.5
				c0-0.37-0.01-0.66-0.05-0.92h1.25c-0.03,0.23-0.04,0.48-0.04,0.83v1.69h2.06v-2.29H37.46z"/>
			<path class="st1" d="M45.73,34.99c0.43,0.09,1.09,0.14,2.41,0.14c0.28-0.62,0.37-0.94,0.42-1.29l1.36,0.15
				c-0.06,0.1-0.06,0.1-0.42,0.94c-0.05,0.11-0.07,0.15-0.09,0.19c0.08-0.01,0.08-0.01,0.66-0.04c1.21-0.07,2.15-0.19,2.73-0.35
				l0.07,1.19c-0.29,0.02-0.29,0.02-0.82,0.08c-0.76,0.09-2.08,0.18-3.13,0.21c-0.3,0.59-0.59,1.01-0.96,1.38l0.01,0.02
				c0.07-0.05,0.07-0.05,0.21-0.16c0.39-0.29,0.94-0.47,1.47-0.47c0.81,0,1.32,0.38,1.49,1.1c0.8-0.29,1.33-0.48,1.59-0.56
				c0.56-0.2,0.6-0.21,0.77-0.31l0.49,1.2c-0.29,0.04-0.6,0.12-1.16,0.28c-0.15,0.04-0.67,0.22-1.56,0.53v0.11
				c0.01,0.27,0.01,0.27,0.01,0.42c0,0.1,0,0.28,0,0.42c-0.01,0.18-0.01,0.27-0.01,0.34c0,0.23,0.01,0.37,0.03,0.55l-1.21,0.03
				c0.04-0.19,0.06-0.72,0.06-1.21c0-0.15,0-0.15,0-0.25c-0.51,0.24-0.78,0.39-1,0.54c-0.36,0.27-0.54,0.55-0.54,0.85
				c0,0.54,0.5,0.76,1.76,0.76c1.25,0,2.32-0.16,3.06-0.44l0.1,1.34c-0.18,0-0.23,0.01-0.48,0.04c-0.75,0.11-1.75,0.19-2.66,0.19
				c-1.1,0-1.79-0.12-2.32-0.44c-0.48-0.27-0.76-0.77-0.76-1.34c0-0.43,0.12-0.76,0.46-1.16c0.47-0.58,1.06-0.98,2.24-1.47
				c-0.05-0.39-0.26-0.56-0.63-0.56c-0.6,0-1.33,0.36-2.13,1.07c-0.44,0.36-0.68,0.62-0.91,0.95l-0.95-0.94
				c0.27-0.21,0.57-0.5,0.94-0.93c0.41-0.48,1.04-1.38,1.25-1.78c0.04-0.08,0.04-0.08,0.08-0.14c-0.04,0-0.18,0.01-0.18,0.01
				c-0.17,0-1.08-0.02-1.31-0.02c-0.2-0.01-0.2-0.01-0.29-0.01c-0.03,0-0.09,0-0.17,0.01L45.73,34.99z"/>
			<path class="st1" d="M57.53,35.47c0.25,0.04,0.45,0.05,0.83,0.05h2.57c0.43,0,0.6-0.01,0.83-0.04v1.07
				c-0.22-0.03-0.36-0.04-0.79-0.04h-2.61c-0.36,0-0.58,0.01-0.83,0.04V35.47z M57.89,33.99c0.28,0.04,0.45,0.05,0.86,0.05h1.79
				c0.42,0,0.58-0.01,0.86-0.05v1.03c-0.29-0.03-0.48-0.04-0.86-0.04h-1.79c-0.38,0-0.6,0.01-0.86,0.04V33.99z M57.91,43.38
				c0.04-0.32,0.06-0.66,0.06-1.02v-1.54c0-0.33-0.01-0.56-0.05-0.82c0.26,0.02,0.42,0.03,0.81,0.03h2.04c0.41,0,0.52,0,0.7-0.03
				c-0.03,0.23-0.03,0.36-0.03,0.75v1.75c0,0.25,0.02,0.56,0.04,0.74h-1.06v-0.42h-1.41v0.56C59.01,43.38,57.91,43.38,57.91,43.38z
				 M57.93,37.04c0.21,0.02,0.34,0.03,0.69,0.03h2.14c0.34,0,0.48-0.01,0.67-0.03v0.97c-0.23-0.02-0.35-0.03-0.67-0.03h-2.14
				c-0.33,0-0.48,0.01-0.69,0.03V37.04z M57.93,38.51c0.21,0.02,0.34,0.03,0.69,0.03h2.14c0.34,0,0.48-0.01,0.67-0.03v0.97
				c-0.24-0.03-0.34-0.03-0.69-0.03H58.6c-0.31,0-0.48,0.01-0.68,0.03v-0.97H57.93z M58.99,41.89h1.43v-0.98h-1.43V41.89z
				 M63.21,41.65c0,0.21,0.05,0.27,0.24,0.31c0.2,0.04,0.51,0.06,0.92,0.06c0.82,0,1.14-0.05,1.3-0.21s0.23-0.62,0.25-1.7
				c0.4,0.19,0.79,0.32,1.14,0.39c-0.08,1.21-0.2,1.74-0.48,2.11c-0.27,0.36-0.82,0.48-2.25,0.48c-1.9,0-2.28-0.17-2.28-1.05v-3.67
				c0-0.5-0.01-0.7-0.04-1.02c0.31,0.03,0.59,0.04,1.04,0.04h2.34v-2.21H63c-0.46,0-0.77,0.02-1.08,0.05v-1.18
				c0.33,0.04,0.66,0.06,1.09,0.06h2.52c0.46,0,0.76-0.01,1.06-0.04c-0.03,0.36-0.04,0.55-0.04,1.05v2.3c0,0.44,0.01,0.73,0.04,1.03
				c-0.33-0.03-0.57-0.04-1.04-0.04h-2.33L63.21,41.65L63.21,41.65z"/>
			<path class="st1" d="M71.76,35.35c-0.28,0-0.59,0.02-1,0.05v-1.25c0.3,0.04,0.52,0.05,0.98,0.05h1.66c0.43,0,0.71-0.01,0.95-0.05
				c-0.03,0.3-0.03,0.4-0.03,0.66c0,1.48,0.37,2.85,1.11,4.12c0.44,0.73,0.95,1.35,1.67,2c0.53,0.49,0.83,0.71,1.54,1.12
				c-0.4,0.39-0.59,0.66-0.88,1.18c-1.04-0.73-1.82-1.49-2.53-2.45c-0.39-0.51-0.61-0.91-0.92-1.54c-0.27-0.57-0.36-0.83-0.53-1.48
				c-0.37,1.33-0.79,2.22-1.49,3.14c-0.67,0.86-1.45,1.59-2.58,2.35c-0.22-0.46-0.46-0.77-0.85-1.09c0.88-0.51,1.39-0.91,2.09-1.63
				c0.81-0.84,1.45-1.96,1.78-3.08c0.21-0.72,0.3-1.26,0.34-2.1C73.07,35.35,71.76,35.35,71.76,35.35z"/>
		</g>
	</g>
</g>
<g>
	<g>
		<path class="st1" d="M45.72,65.02c0.72,0,1.28,0.31,1.72,0.78c0.1,0.1,0.05,0.23-0.05,0.33l-0.42,0.46
			c-0.1,0.11-0.21,0.06-0.3-0.03c-0.22-0.21-0.49-0.4-0.92-0.4c-0.72,0-1.22,0.56-1.22,1.27c0,0.72,0.49,1.28,1.21,1.28
			c0.51,0,0.78-0.28,0.98-0.51c0.07-0.08,0.21-0.1,0.29-0.03l0.45,0.38c0.11,0.1,0.16,0.21,0.08,0.33
			c-0.39,0.61-1.01,0.97-1.83,0.97c-1.35,0-2.44-1.03-2.44-2.42C43.27,66.07,44.35,65.02,45.72,65.02z"/>
		<path class="st1" d="M49.48,62.96c0-0.11,0.11-0.22,0.22-0.22h0.81c0.11,0,0.22,0.11,0.22,0.22v6.56c0,0.12-0.11,0.22-0.22,0.22
			H49.7c-0.11,0-0.22-0.1-0.22-0.22V62.96z"/>
		<path class="st1" d="M52.84,63.53c0-0.44,0.34-0.79,0.79-0.79s0.8,0.35,0.8,0.79c0,0.44-0.35,0.8-0.8,0.8S52.84,63.97,52.84,63.53
			z M53.02,65.34c0-0.13,0.11-0.22,0.22-0.22h0.81c0.11,0,0.22,0.09,0.22,0.22v4.18c0,0.12-0.11,0.22-0.22,0.22h-0.81
			c-0.11,0-0.22-0.1-0.22-0.22V65.34z"/>
		<path class="st1" d="M58.72,65.02c0.72,0,1.28,0.31,1.72,0.78c0.1,0.1,0.05,0.23-0.05,0.33l-0.42,0.46
			c-0.1,0.11-0.21,0.06-0.3-0.03c-0.22-0.21-0.49-0.4-0.92-0.4c-0.72,0-1.22,0.56-1.22,1.27c0,0.72,0.49,1.28,1.21,1.28
			c0.51,0,0.78-0.28,0.98-0.51c0.07-0.08,0.21-0.1,0.29-0.03l0.45,0.38c0.11,0.1,0.16,0.21,0.08,0.33
			c-0.39,0.61-1.01,0.97-1.83,0.97c-1.35,0-2.44-1.03-2.44-2.42C56.27,66.07,57.35,65.02,58.72,65.02z"/>
		<path class="st1" d="M62.47,62.96c0-0.11,0.11-0.22,0.22-0.22h0.81c0.12,0,0.22,0.11,0.22,0.22v3.91l1.59-1.61
			c0.08-0.07,0.16-0.14,0.29-0.14h0.94c0.19,0,0.26,0.21,0.15,0.34l-1.83,1.8l1.92,2.15c0.12,0.13,0.05,0.33-0.14,0.33h-0.98
			c-0.08,0-0.17-0.04-0.2-0.09l-1.74-2.08v1.95c0,0.12-0.1,0.22-0.22,0.22h-0.81c-0.11,0-0.22-0.1-0.22-0.22V62.96z"/>
	</g>
</g>
<path class="st1" d="M34.34,61.15c-2.76,0-5,2.24-5,5c0,2.76,2.24,5,5,5s5-2.24,5-5S37.11,61.15,34.34,61.15z"/>
<rect x="31.66" y="65.43" class="st0" width="5.38" height="1.43"/>
</svg>
