<?xml version="1.0" encoding="utf-8"?>
<!-- Generator: Adobe Illustrator 24.3.0, SVG Export Plug-In . SVG Version: 6.00 Build 0)  -->
<svg version="1.1" id="レイヤー_1" xmlns="http://www.w3.org/2000/svg" xmlns:xlink="http://www.w3.org/1999/xlink" x="0px"
	 y="0px" viewBox="0 0 120 23.4" style="enable-background:new 0 0 120 23.4;" xml:space="preserve">
<style type="text/css">
	.st0{fill:#62524D;}
	.st1{fill:#FAB9B2;}
	.st2{fill:#FFFFFF;}
</style>
<g>
	<g>
		<path class="st0" d="M36.8,5c0-0.2,0.2-0.4,0.4-0.4h9.2c0.2,0,0.4,0.2,0.4,0.4v1.8c0,0.2-0.2,0.4-0.4,0.4h-6.7v4.2h5.6
			c0.2,0,0.4,0.2,0.4,0.4v1.8c0,0.2-0.2,0.4-0.4,0.4h-5.6v5.7c0,0.2-0.2,0.4-0.4,0.4h-2.1c-0.2,0-0.4-0.2-0.4-0.4V5z"/>
		<path class="st0" d="M53,6.4c0-1,0.8-1.8,1.8-1.8c1,0,1.8,0.8,1.8,1.8s-0.8,1.8-1.8,1.8S53,7.4,53,6.4z M53.4,10.5
			c0-0.3,0.2-0.5,0.5-0.5h1.8c0.2,0,0.5,0.2,0.5,0.5v9.4c0,0.3-0.2,0.5-0.5,0.5h-1.8c-0.2,0-0.5-0.2-0.5-0.5V10.5z"/>
		<path class="st0" d="M62.7,19.6l3.3-4.5l-3.2-4.3c-0.3-0.3-0.1-0.8,0.4-0.8h2c0.3,0,0.6,0,0.9,0.4l1.7,2.7h0l1.8-2.7
			c0.2-0.3,0.4-0.4,0.8-0.4h2.2c0.5,0,0.6,0.4,0.3,0.8L69.7,15l3.2,4.6c0.2,0.3,0.1,0.8-0.3,0.8h-2.2c-0.3,0-0.5-0.2-0.7-0.4
			l-1.9-2.9h0l-2,3.1c-0.1,0.1-0.3,0.2-0.4,0.2H63C62.6,20.4,62.5,19.9,62.7,19.6z"/>
		<path class="st0" d="M84.2,9.7c2.7,0,4.8,2,4.8,4.8c0,0.2,0,0.5,0,0.7c0,0.3-0.3,0.5-0.5,0.5h-6.7c0,1.3,1.1,2.4,2.6,2.4
			c1,0,1.8-0.4,2.2-0.8c0.2-0.2,0.5-0.2,0.7,0l0.9,1.2c0.2,0.2,0.2,0.5,0,0.7c-0.9,0.8-2.2,1.4-3.9,1.4c-3.1,0-5.3-2.5-5.3-5.4
			C79,12.2,81.1,9.7,84.2,9.7z M86.2,13.9c0-1-0.9-1.8-2-1.8c-1.3,0-2.1,0.8-2.2,1.8H86.2z"/>
		<path class="st0" d="M99,9.7c1,0,2,0.2,2.5,0.4V5.1c0-0.2,0.2-0.5,0.5-0.5h1.8c0.3,0,0.5,0.2,0.5,0.5v14.8c0,0.3-0.2,0.5-0.5,0.5
			H103c-0.2,0-0.4-0.2-0.5-0.5l-0.3-0.8c0,0-1.2,1.6-3.4,1.6c-2.8,0-5-2.3-5-5.4C93.8,12.1,95.9,9.7,99,9.7z M101.5,12.9
			c0,0-0.9-0.6-2.2-0.6c-1.7,0-2.6,1.4-2.6,2.9c0,1.5,0.8,2.9,2.5,2.9c1.4,0,2.1-0.9,2.3-1.4V12.9z"/>
	</g>
</g>
<g>
	<path class="st1" d="M11.8,0.4c-6.2,0-11.2,5-11.2,11.2s5,11.2,11.2,11.2S23,17.8,23,11.6C23,5.4,18,0.4,11.8,0.4z"/>
	<rect x="5.7" y="10" class="st2" width="12.1" height="3.2"/>
</g>
</svg>
