<?xml version="1.0" encoding="utf-8"?>
<!-- Generator: Adobe Illustrator 24.3.0, SVG Export Plug-In . SVG Version: 6.00 Build 0)  -->
<svg version="1.1" id="レイヤー_1" xmlns="http://www.w3.org/2000/svg" xmlns:xlink="http://www.w3.org/1999/xlink" x="0px"
	 y="0px" viewBox="0 0 136 23.38" style="enable-background:new 0 0 136 23.38;" xml:space="preserve">
<style type="text/css">
	.st0{fill:#62524D;}
	.st1{fill:#DBB8AD;}
	.st2{fill:#FFFFFF;}
</style>
<g>
	<g>
		<path class="st0" d="M35.12,6.02C35,5.76,35.16,5.5,35.46,5.5h2.04c0.18,0,0.3,0.12,0.34,0.22l3.86,8.6h0.1l3.86-8.6
			c0.04-0.1,0.16-0.22,0.34-0.22h2.04c0.3,0,0.46,0.26,0.34,0.52l-6.2,13.46c-0.06,0.12-0.16,0.22-0.34,0.22h-0.2
			c-0.18,0-0.28-0.1-0.34-0.22L35.12,6.02z"/>
		<path class="st0" d="M55.92,13.66c0.94,0,1.78,0.26,1.78,0.26c0.04-1.18-0.3-1.74-1.28-1.74c-0.84,0-2.06,0.18-2.6,0.34
			c-0.3,0.1-0.48-0.12-0.52-0.4l-0.2-1.04c-0.08-0.34,0.1-0.5,0.3-0.56c0.2-0.08,1.66-0.46,3.16-0.46c2.88,0,3.48,1.5,3.48,4.02
			v4.98c0,0.24-0.2,0.44-0.44,0.44h-0.68c-0.16,0-0.28-0.06-0.4-0.32l-0.26-0.62c-0.54,0.52-1.46,1.16-2.9,1.16
			c-1.84,0-3.12-1.18-3.12-3.16C52.24,14.92,53.58,13.66,55.92,13.66z M55.98,17.86c0.82,0,1.54-0.64,1.66-0.98v-1.36
			c0,0-0.62-0.28-1.36-0.28c-1.06,0-1.64,0.5-1.64,1.32C54.64,17.34,55.12,17.86,55.98,17.86z"/>
		<path class="st0" d="M66.52,10.7c0-0.26,0.22-0.44,0.44-0.44h0.74c0.22,0,0.32,0.1,0.4,0.3l0.34,0.9c0.32-0.46,1.18-1.4,2.6-1.4
			c1.1,0,2,0.3,1.74,0.9l-0.6,1.36c-0.1,0.22-0.32,0.3-0.54,0.2c-0.22-0.1-0.44-0.18-0.86-0.18c-1,0-1.6,0.64-1.76,0.96v5.76
			c0,0.34-0.22,0.44-0.52,0.44h-1.54c-0.22,0-0.44-0.2-0.44-0.44V10.7z"/>
		<path class="st0" d="M77.9,7.08c0-0.88,0.68-1.58,1.58-1.58s1.6,0.7,1.6,1.58c0,0.88-0.7,1.6-1.6,1.6S77.9,7.96,77.9,7.08z
			 M78.26,10.7c0-0.26,0.22-0.44,0.44-0.44h1.62c0.22,0,0.44,0.18,0.44,0.44v8.36c0,0.24-0.22,0.44-0.44,0.44H78.7
			c-0.22,0-0.44-0.2-0.44-0.44V10.7z"/>
		<path class="st0" d="M90.36,13.66c0.94,0,1.78,0.26,1.78,0.26c0.04-1.18-0.3-1.74-1.28-1.74c-0.84,0-2.06,0.18-2.6,0.34
			c-0.3,0.1-0.48-0.12-0.52-0.4l-0.2-1.04c-0.08-0.34,0.1-0.5,0.3-0.56c0.2-0.08,1.66-0.46,3.16-0.46c2.88,0,3.48,1.5,3.48,4.02
			v4.98c0,0.24-0.2,0.44-0.44,0.44h-0.68c-0.16,0-0.28-0.06-0.4-0.32l-0.26-0.62c-0.54,0.52-1.46,1.16-2.9,1.16
			c-1.84,0-3.12-1.18-3.12-3.16C86.68,14.92,88.02,13.66,90.36,13.66z M90.42,17.86c0.82,0,1.54-0.64,1.66-0.98v-1.36
			c0,0-0.62-0.28-1.36-0.28c-1.06,0-1.64,0.5-1.64,1.32C89.08,17.34,89.56,17.86,90.42,17.86z"/>
		<path class="st0" d="M100.96,5.94c0-0.22,0.22-0.44,0.44-0.44h1.62c0.24,0,0.44,0.22,0.44,0.44v4.52c0.42-0.18,1.34-0.4,2.26-0.4
			c2.74,0,4.48,2.12,4.48,4.82c0,2.64-1.82,4.84-4.34,4.84c-2.02,0-3.08-1.38-3.08-1.38l-0.22,0.72c-0.1,0.26-0.24,0.44-0.46,0.44
			h-0.7c-0.22,0-0.44-0.2-0.44-0.44V5.94z M105.5,17.44c1.44,0,2.18-1.26,2.18-2.56c0-1.3-0.78-2.54-2.3-2.54
			c-1.16,0-1.92,0.52-1.92,0.52v3.3C103.66,16.68,104.3,17.44,105.5,17.44z"/>
		<path class="st0" d="M116.24,5.94c0-0.22,0.22-0.44,0.44-0.44h1.62c0.22,0,0.44,0.22,0.44,0.44v13.12c0,0.24-0.22,0.44-0.44,0.44
			h-1.62c-0.22,0-0.44-0.2-0.44-0.44V5.94z"/>
		<path class="st0" d="M129.42,10.06c2.4,0,4.24,1.78,4.24,4.28c0,0.14-0.02,0.46-0.04,0.6c-0.02,0.24-0.24,0.42-0.44,0.42h-5.92
			c0.02,1.14,0.96,2.14,2.3,2.14c0.92,0,1.56-0.34,1.98-0.68c0.22-0.18,0.46-0.2,0.6,0l0.78,1.04c0.16,0.18,0.18,0.4-0.04,0.6
			c-0.8,0.68-1.94,1.26-3.44,1.26c-2.76,0-4.68-2.2-4.68-4.84C124.76,12.28,126.68,10.06,129.42,10.06z M131.14,13.72
			c-0.04-0.9-0.76-1.6-1.78-1.6c-1.12,0-1.84,0.68-1.96,1.6H131.14z"/>
	</g>
</g>
<g>
	<path class="st1" d="M11.76,0.41c-6.2,0-11.23,5.03-11.23,11.23c0,6.2,5.03,11.23,11.23,11.23s11.23-5.03,11.23-11.23
		C22.99,5.43,17.96,0.41,11.76,0.41z"/>
	<rect x="5.73" y="10.03" class="st2" width="12.07" height="3.22"/>
</g>
</svg>
