<?xml version="1.0" encoding="utf-8"?>
<!-- Generator: Adobe Illustrator 24.3.0, SVG Export Plug-In . SVG Version: 6.00 Build 0)  -->
<svg version="1.1" id="レイヤー_1" xmlns="http://www.w3.org/2000/svg" xmlns:xlink="http://www.w3.org/1999/xlink" x="0px"
	 y="0px" viewBox="0 0 161.56 174.27" style="enable-background:new 0 0 161.56 174.27;" xml:space="preserve">
<style type="text/css">
	.st0{enable-background:new    ;}
	.st1{fill:#62524D;}
	.st2{fill:#DBB8AD;}
	.st3{fill:#FFFFFF;}
</style>
<g>
	<g class="st0">
		<path class="st1" d="M1.54,146.44c0-0.4,0.36-0.76,0.76-0.76h3.74c0.4,0,0.76,0.36,0.76,0.76v26.62c0,0.4-0.36,0.76-0.76,0.76H2.3
			c-0.4,0-0.76-0.36-0.76-0.76V146.44z"/>
	</g>
	<g class="st0">
		<path class="st1" d="M16.02,156.13c0-0.52,0.44-0.89,0.89-0.89h1.53c0.44,0,0.64,0.2,0.76,0.56l0.68,1.73
			c0.68-0.76,2.41-2.69,5.99-2.69c5.91,0,7.44,3.98,7.44,8.49v9.61c0,0.48-0.44,0.89-0.89,0.89h-3.26c-0.48,0-0.89-0.4-0.89-0.89
			v-9.61c0-2.41-0.97-3.9-3.22-3.9c-2.41,0-3.58,1.61-4.02,2.9v10.62c0,0.68-0.28,0.89-1.17,0.89h-2.98c-0.44,0-0.89-0.4-0.89-0.89
			V156.13z"/>
	</g>
	<g class="st0">
		<path class="st1" d="M49.39,154.84c2.9,0,5.15,1.25,6.92,3.14c0.4,0.4,0.2,0.92-0.2,1.33l-1.69,1.85
			c-0.4,0.44-0.85,0.24-1.21-0.12c-0.89-0.84-1.97-1.61-3.7-1.61c-2.9,0-4.91,2.25-4.91,5.11c0,2.9,1.97,5.15,4.87,5.15
			c2.05,0,3.14-1.13,3.94-2.05c0.28-0.32,0.84-0.4,1.17-0.12l1.81,1.53c0.44,0.4,0.64,0.84,0.32,1.33c-1.57,2.45-4.06,3.9-7.36,3.9
			c-5.43,0-9.81-4.14-9.81-9.73C39.54,159.07,43.88,154.84,49.39,154.84z"/>
	</g>
	<g class="st0">
		<path class="st1" d="M72.85,154.84c5.27,0,9.53,4.42,9.53,9.65c0,5.31-4.26,9.77-9.53,9.77c-5.23,0-9.49-4.46-9.49-9.77
			C63.36,159.27,67.62,154.84,72.85,154.84z M72.85,169.68c2.69,0,4.87-2.33,4.87-5.19c0-2.82-2.17-5.07-4.87-5.07
			c-2.69,0-4.83,2.25-4.83,5.07C68.02,167.35,70.15,169.68,72.85,169.68z"/>
	</g>
	<g class="st0">
		<path class="st1" d="M88.76,156.13c0-0.52,0.44-0.89,0.89-0.89h1.45c0.4,0,0.68,0.2,0.76,0.52l0.68,1.77
			c0.76-0.89,2.41-2.69,5.67-2.69c2.69,0,4.02,0.97,5.55,2.82c0.8-0.84,2.65-2.82,5.99-2.82c5.95,0,7.36,3.78,7.36,8.61v9.49
			c0,0.48-0.4,0.89-0.92,0.89h-3.22c-0.48,0-0.89-0.4-0.89-0.89v-9.61c0-2.41-0.88-3.9-3.22-3.9c-2.69,0-3.46,1.93-3.46,1.93
			s0.08,0.93,0.08,1.77v9.81c0,0.48-0.44,0.89-0.89,0.89h-3.3c-0.52,0-0.89-0.4-0.89-0.89v-9.61c0-2.41-0.68-3.9-3.06-3.9
			c-2.29,0-3.14,1.61-3.58,2.9v10.62c0,0.48-0.44,0.89-0.89,0.89h-3.26c-0.44,0-0.89-0.4-0.89-0.89V156.13z"/>
	</g>
	<g class="st0">
		<path class="st1" d="M133.53,154.84c4.83,0,8.53,3.58,8.53,8.61c0,0.28-0.04,0.92-0.08,1.21c-0.04,0.48-0.48,0.84-0.89,0.84h-11.9
			c0.04,2.29,1.93,4.3,4.63,4.3c1.85,0,3.14-0.68,3.98-1.37c0.44-0.36,0.93-0.4,1.21,0l1.57,2.09c0.32,0.36,0.36,0.8-0.08,1.21
			c-1.61,1.37-3.9,2.53-6.92,2.53c-5.55,0-9.41-4.42-9.41-9.73C124.16,159.31,128.02,154.84,133.53,154.84z M136.99,162.2
			c-0.08-1.81-1.53-3.22-3.58-3.22c-2.25,0-3.7,1.37-3.94,3.22H136.99z"/>
		<path class="st1" d="M148.33,172.58c-0.24-0.16-0.44-0.6-0.24-1.01l1.21-2.41c0.2-0.44,0.64-0.6,1.09-0.32
			c0.84,0.52,2.17,1.21,4.1,1.21c1.41,0,2.05-0.52,2.05-1.33c0-0.84-1.05-1.61-3.5-2.57c-3.58-1.37-5.19-3.06-5.19-5.87
			c0-2.81,2.13-5.43,6.67-5.43c2.74,0,4.5,0.72,5.51,1.37c0.4,0.32,0.64,0.81,0.4,1.29l-1.05,2.13c-0.28,0.44-0.76,0.52-1.17,0.36
			c-0.89-0.4-2.17-0.92-3.7-0.92c-1.25,0-1.77,0.6-1.77,1.21c0,0.84,0.92,1.29,2.65,2.01c3.58,1.45,6.15,2.73,6.15,6.43
			c0,2.93-2.49,5.55-7.16,5.55C151.3,174.27,149.37,173.3,148.33,172.58z"/>
	</g>
</g>
<path class="st1" d="M74.55,83.68c4.76,0,19.61,0,19.61,0c3.95,0,7.14-3.19,7.14-7.14c0-3.95-3.19-7.12-7.14-7.12
	c-3.57,0-10.69,0-28.52,0s-23.48,7.43-29.72,13.67l-11.32,9.89c-0.73,0.64-1.16,1.57-1.16,2.53v32.87c0,0.43,0.25,0.84,0.66,1.02
	c0.41,0.18,0.87,0.13,1.2-0.17l21.89-18.77c0.77-0.66,1.81-0.94,2.8-0.76l34.1,6.2c2.38,0.43,4.83-0.11,6.8-1.51
	c0,0,43.54-30.27,46.74-32.94l0,0c3.06-2.81,3.04-6.89,0.22-9.95c-2.81-3.06-8.06-2.42-11.56,0.17
	c-3.2,2.67-25.12,17.07-25.12,17.07H74.55l-0.08,0.04c-1.4-0.04-2.51-1.22-2.45-2.63c0.06-1.4,1.22-2.51,2.63-2.45L74.55,83.68z"/>
<path class="st2" d="M106.71,9.42c-6.49,0-12.15,3.47-15.28,8.65c10.02,3.68,17.2,13.28,17.2,24.56c0,0.83-0.04,1.65-0.13,2.46
	c9.04-0.9,16.09-8.52,16.09-17.79C124.6,17.43,116.59,9.42,106.71,9.42z"/>
<path class="st2" d="M82.45,22.19c-11.28,0-20.43,9.15-20.43,20.43s9.15,20.43,20.43,20.43s20.43-9.15,20.43-20.43
	C102.89,31.34,93.74,22.19,82.45,22.19z"/>
<g>
	<path class="st2" d="M81.89,22.48c-11.28,0-20.43,9.15-20.43,20.43s9.15,20.43,20.43,20.43s20.43-9.15,20.43-20.43
		C102.33,31.62,93.18,22.48,81.89,22.48z"/>
	<rect x="70.9" y="39.99" class="st3" width="21.97" height="5.86"/>
	<rect x="78.97" y="31.93" class="st3" width="5.86" height="21.97"/>
</g>
</svg>
