<?xml version="1.0" encoding="utf-8"?>
<!-- Generator: Adobe Illustrator 24.3.0, SVG Export Plug-In . SVG Version: 6.00 Build 0)  -->
<svg version="1.1" id="レイヤー_1" xmlns="http://www.w3.org/2000/svg" xmlns:xlink="http://www.w3.org/1999/xlink" x="0px"
	 y="0px" viewBox="0 0 100 23.38" style="enable-background:new 0 0 100 23.38;" xml:space="preserve">
<style type="text/css">
	.st0{fill:#62524D;}
	.st1{fill:#DBB8AD;}
	.st2{fill:#FFFFFF;}
</style>
<g>
	<g>
		<path class="st0" d="M36.8,5.88c0-0.2,0.16-0.38,0.38-0.38h8.14c0.22,0,0.38,0.18,0.38,0.38v1.64c0,0.2-0.16,0.38-0.38,0.38H39.4
			v3.76h4.94c0.2,0,0.38,0.18,0.38,0.38v1.64c0,0.2-0.18,0.38-0.38,0.38H39.4v5.06c0,0.2-0.18,0.38-0.38,0.38h-1.84
			c-0.22,0-0.38-0.18-0.38-0.38V5.88z"/>
		<path class="st0" d="M51.16,7.08c0-0.88,0.68-1.58,1.58-1.58c0.9,0,1.6,0.7,1.6,1.58c0,0.88-0.7,1.6-1.6,1.6
			C51.84,8.68,51.16,7.96,51.16,7.08z M51.52,10.7c0-0.26,0.22-0.44,0.44-0.44h1.62c0.22,0,0.44,0.18,0.44,0.44v8.36
			c0,0.24-0.22,0.44-0.44,0.44h-1.62c-0.22,0-0.44-0.2-0.44-0.44V10.7z"/>
		<path class="st0" d="M59.82,18.82l2.94-4.02l-2.82-3.86c-0.24-0.3-0.06-0.68,0.32-0.68h1.82c0.3,0,0.54,0.02,0.76,0.32L64.38,13
			h0.04L66,10.58c0.18-0.26,0.38-0.32,0.7-0.32h1.96c0.4,0,0.5,0.38,0.26,0.68l-2.84,3.82l2.86,4.06c0.22,0.3,0.12,0.68-0.26,0.68
			h-1.92c-0.3,0-0.48-0.14-0.64-0.38l-1.7-2.54h-0.04l-1.8,2.74c-0.08,0.1-0.24,0.18-0.38,0.18h-2.08
			C59.72,19.5,59.62,19.12,59.82,18.82z"/>
		<path class="st0" d="M78.94,10.06c2.4,0,4.24,1.78,4.24,4.28c0,0.14-0.02,0.46-0.04,0.6c-0.02,0.24-0.24,0.42-0.44,0.42h-5.92
			c0.02,1.14,0.96,2.14,2.3,2.14c0.92,0,1.56-0.34,1.98-0.68c0.22-0.18,0.46-0.2,0.6,0l0.78,1.04c0.16,0.18,0.18,0.4-0.04,0.6
			c-0.8,0.68-1.94,1.26-3.44,1.26c-2.76,0-4.68-2.2-4.68-4.84C74.28,12.28,76.2,10.06,78.94,10.06z M80.66,13.72
			c-0.04-0.9-0.76-1.6-1.78-1.6c-1.12,0-1.84,0.68-1.96,1.6H80.66z"/>
		<path class="st0" d="M92.08,10.06c0.92,0,1.8,0.22,2.22,0.38v-4.5c0-0.22,0.22-0.44,0.44-0.44h1.62c0.24,0,0.44,0.22,0.44,0.44
			v13.12c0,0.24-0.2,0.44-0.44,0.44h-0.74c-0.22,0-0.36-0.18-0.44-0.44l-0.24-0.72c0,0-1.06,1.38-3.02,1.38
			c-2.52,0-4.42-2.04-4.42-4.84C87.5,12.18,89.32,10.06,92.08,10.06z M94.3,12.86c0,0-0.76-0.52-1.92-0.52
			c-1.52,0-2.3,1.24-2.3,2.54c0,1.3,0.74,2.56,2.18,2.56c1.2,0,1.84-0.76,2.04-1.28V12.86z"/>
	</g>
</g>
<g>
	<path class="st1" d="M11.76,0.41c-6.2,0-11.23,5.03-11.23,11.23c0,6.2,5.03,11.23,11.23,11.23s11.23-5.03,11.23-11.23
		C22.99,5.43,17.96,0.41,11.76,0.41z"/>
	<rect x="5.73" y="10.03" class="st2" width="12.07" height="3.22"/>
</g>
</svg>
