<?xml version="1.0" encoding="utf-8"?>
<!-- Generator: Adobe Illustrator 24.3.0, SVG Export Plug-In . SVG Version: 6.00 Build 0)  -->
<svg version="1.1" id="レイヤー_1" xmlns="http://www.w3.org/2000/svg" xmlns:xlink="http://www.w3.org/1999/xlink" x="0px"
	 y="0px" viewBox="0 0 166.8 23.4" style="enable-background:new 0 0 166.8 23.4;" xml:space="preserve">
<style type="text/css">
	.st0{fill:#62524D;}
	.st1{fill:#FAB9B2;}
	.st2{fill:#FFFFFF;}
</style>
<g>
	<g>
		<path class="st0" d="M35.1,4.2c-0.1-0.3,0-0.6,0.4-0.6h2.3c0.2,0,0.3,0.1,0.4,0.2l4.3,9.7h0.1L47,3.9c0-0.1,0.2-0.2,0.4-0.2h2.3
			c0.3,0,0.5,0.3,0.4,0.6l-7,15.1c-0.1,0.1-0.2,0.2-0.4,0.2h-0.2c-0.2,0-0.3-0.1-0.4-0.2L35.1,4.2z"/>
		<path class="st0" d="M58.5,12.8c1.1,0,2,0.3,2,0.3c0-1.3-0.3-2-1.4-2c-0.9,0-2.3,0.2-2.9,0.4c-0.3,0.1-0.5-0.1-0.6-0.5l-0.2-1.2
			c-0.1-0.4,0.1-0.6,0.3-0.6c0.2-0.1,1.9-0.5,3.6-0.5c3.2,0,3.9,1.7,3.9,4.5v5.6c0,0.3-0.2,0.5-0.5,0.5h-0.8c-0.2,0-0.3-0.1-0.5-0.4
			l-0.3-0.7c-0.6,0.6-1.6,1.3-3.3,1.3c-2.1,0-3.5-1.3-3.5-3.6C54.4,14.2,55.9,12.8,58.5,12.8z M58.6,17.5c0.9,0,1.7-0.7,1.9-1.1
			v-1.5c0,0-0.7-0.3-1.5-0.3c-1.2,0-1.8,0.6-1.8,1.5C57.1,16.9,57.6,17.5,58.6,17.5z"/>
		<path class="st0" d="M70.5,9.5C70.5,9.2,70.7,9,71,9h0.8c0.2,0,0.4,0.1,0.5,0.3l0.4,1c0.4-0.5,1.3-1.6,2.9-1.6c1.2,0,2.3,0.3,2,1
			l-0.7,1.5c-0.1,0.2-0.4,0.3-0.6,0.2c-0.2-0.1-0.5-0.2-1-0.2c-1.1,0-1.8,0.7-2,1.1v6.5c0,0.4-0.2,0.5-0.6,0.5H71
			c-0.2,0-0.5-0.2-0.5-0.5C70.5,18.9,70.5,9.5,70.5,9.5z"/>
		<path class="st0" d="M83.3,5.4c0-1,0.8-1.8,1.8-1.8c1,0,1.8,0.8,1.8,1.8S86.1,7.2,85,7.2C84,7.2,83.3,6.4,83.3,5.4z M83.7,9.5
			c0-0.3,0.2-0.5,0.5-0.5H86c0.2,0,0.5,0.2,0.5,0.5v9.4c0,0.3-0.2,0.5-0.5,0.5h-1.8c-0.2,0-0.5-0.2-0.5-0.5
			C83.7,18.9,83.7,9.5,83.7,9.5z"/>
		<path class="st0" d="M97.3,12.8c1.1,0,2,0.3,2,0.3c0-1.3-0.3-2-1.4-2c-0.9,0-2.3,0.2-2.9,0.4c-0.3,0.1-0.5-0.1-0.6-0.5l-0.2-1.2
			c-0.1-0.4,0.1-0.6,0.3-0.6c0.2-0.1,1.9-0.5,3.6-0.5c3.2,0,3.9,1.7,3.9,4.5v5.6c0,0.3-0.2,0.5-0.5,0.5h-0.8c-0.2,0-0.3-0.1-0.5-0.4
			l-0.3-0.7c-0.6,0.6-1.6,1.3-3.3,1.3c-2.1,0-3.5-1.3-3.5-3.6C93.1,14.2,94.6,12.8,97.3,12.8z M97.3,17.5c0.9,0,1.7-0.7,1.9-1.1
			v-1.5c0,0-0.7-0.3-1.5-0.3c-1.2,0-1.8,0.6-1.8,1.5C95.8,16.9,96.4,17.5,97.3,17.5z"/>
		<path class="st0" d="M109.2,4.1c0-0.2,0.2-0.5,0.5-0.5h1.8c0.3,0,0.5,0.2,0.5,0.5v5.1c0.5-0.2,1.5-0.5,2.5-0.5c3.1,0,5,2.4,5,5.4
			c0,3-2,5.4-4.9,5.4c-2.3,0-3.5-1.6-3.5-1.6l-0.2,0.8c-0.1,0.3-0.3,0.5-0.5,0.5h-0.8c-0.2,0-0.5-0.2-0.5-0.5L109.2,4.1L109.2,4.1z
			 M114.3,17c1.6,0,2.5-1.4,2.5-2.9s-0.9-2.9-2.6-2.9c-1.3,0-2.2,0.6-2.2,0.6v3.7C112.2,16.2,113,17,114.3,17z"/>
		<path class="st0" d="M126.4,4.1c0-0.2,0.2-0.5,0.5-0.5h1.8c0.2,0,0.5,0.2,0.5,0.5v14.8c0,0.3-0.2,0.5-0.5,0.5h-1.8
			c-0.2,0-0.5-0.2-0.5-0.5V4.1z"/>
		<path class="st0" d="M141.2,8.7c2.7,0,4.8,2,4.8,4.8c0,0.2,0,0.5,0,0.7c0,0.3-0.3,0.5-0.5,0.5h-6.7c0,1.3,1.1,2.4,2.6,2.4
			c1,0,1.8-0.4,2.2-0.8c0.2-0.2,0.5-0.2,0.7,0l0.9,1.2c0.2,0.2,0.2,0.5,0,0.7c-0.9,0.8-2.2,1.4-3.9,1.4c-3.1,0-5.3-2.5-5.3-5.4
			C136,11.2,138.1,8.7,141.2,8.7z M143.2,12.9c0-1-0.9-1.8-2-1.8c-1.3,0-2.1,0.8-2.2,1.8H143.2z"/>
	</g>
</g>
<g>
	<path class="st1" d="M11.8,0.4c-6.2,0-11.2,5-11.2,11.2s5,11.2,11.2,11.2S23,17.8,23,11.6C23,5.4,18,0.4,11.8,0.4z"/>
	<rect x="5.7" y="10" class="st2" width="12.1" height="3.2"/>
</g>
</svg>
