<?xml version="1.0" encoding="utf-8"?>
<!-- Generator: Adobe Illustrator 24.3.0, SVG Export Plug-In . SVG Version: 6.00 Build 0)  -->
<svg version="1.1" id="レイヤー_1" xmlns="http://www.w3.org/2000/svg" xmlns:xlink="http://www.w3.org/1999/xlink" x="0px"
	 y="0px" viewBox="0 0 384 399.7" style="enable-background:new 0 0 384 399.7;" xml:space="preserve">
<style type="text/css">
	.st0{enable-background:new    ;}
	.st1{fill:#62524D;}
	.st2{fill:#FAB9B2;}
	.st3{fill:#DBB8AD;}
	.st4{fill:#FFFFFF;}
</style>
<g>
	<g class="st0">
		<path class="st1" d="M0,332.9c0-1,0.9-1.8,1.8-1.8h9c1,0,1.8,0.9,1.8,1.8v63.9c0,1-0.9,1.8-1.8,1.8h-9c-1,0-1.8-0.9-1.8-1.8V332.9
			z"/>
	</g>
	<g class="st0">
		<path class="st1" d="M34.8,356.1c0-1.2,1.1-2.1,2.1-2.1h3.7c1.1,0,1.5,0.5,1.8,1.3l1.6,4.2c1.6-1.8,5.8-6.5,14.4-6.5
			c14.2,0,17.9,9.6,17.9,20.4v23.1c0,1.2-1.1,2.1-2.1,2.1h-7.8c-1.2,0-2.1-1-2.1-2.1v-23.1c0-5.8-2.3-9.4-7.7-9.4
			c-5.8,0-8.6,3.9-9.6,7v25.5c0,1.6-0.7,2.1-2.8,2.1h-7.2c-1.1,0-2.1-1-2.1-2.1L34.8,356.1L34.8,356.1z"/>
	</g>
	<g class="st0">
		<path class="st1" d="M114.8,353c7,0,12.4,3,16.6,7.5c1,1,0.5,2.2-0.5,3.2l-4.1,4.4c-1,1.1-2,0.6-2.9-0.3c-2.1-2-4.7-3.9-8.9-3.9
			c-7,0-11.8,5.4-11.8,12.3c0,7,4.7,12.4,11.7,12.4c4.9,0,7.5-2.7,9.5-4.9c0.7-0.8,2-1,2.8-0.3l4.3,3.7c1.1,1,1.5,2,0.8,3.2
			c-3.8,5.9-9.7,9.4-17.7,9.4c-13,0-23.5-9.9-23.5-23.4C91.2,363.2,101.6,353,114.8,353z"/>
	</g>
	<g class="st0">
		<path class="st1" d="M171.1,353c12.6,0,22.9,10.6,22.9,23.2c0,12.7-10.2,23.4-22.9,23.4c-12.6,0-22.8-10.7-22.8-23.4
			C148.4,363.7,158.6,353,171.1,353z M171.1,388.6c6.5,0,11.7-5.6,11.7-12.5c0-6.8-5.2-12.2-11.7-12.2c-6.5,0-11.6,5.4-11.6,12.2
			C159.6,383.1,164.7,388.6,171.1,388.6z"/>
	</g>
	<g class="st0">
		<path class="st1" d="M209.3,356.1c0-1.2,1.1-2.1,2.1-2.1h3.5c1,0,1.6,0.5,1.8,1.2l1.6,4.2c1.8-2.1,5.8-6.5,13.6-6.5
			c6.5,0,9.6,2.3,13.3,6.8c1.9-2,6.4-6.8,14.4-6.8c14.3,0,17.7,9.1,17.7,20.7v22.8c0,1.2-1,2.1-2.2,2.1h-7.7c-1.2,0-2.1-1-2.1-2.1
			v-23.1c0-5.8-2.1-9.4-7.7-9.4c-6.5,0-8.3,4.6-8.3,4.6s0.2,2.2,0.2,4.2v23.5c0,1.2-1.1,2.1-2.1,2.1h-7.9c-1.2,0-2.1-1-2.1-2.1
			v-23.1c0-5.8-1.6-9.4-7.3-9.4c-5.5,0-7.5,3.9-8.6,7v25.5c0,1.2-1.1,2.1-2.1,2.1h-7.8c-1.1,0-2.1-1-2.1-2.1L209.3,356.1
			L209.3,356.1z"/>
	</g>
	<g class="st0">
		<path class="st1" d="M316.8,353c11.6,0,20.5,8.6,20.5,20.7c0,0.7-0.1,2.2-0.2,2.9c-0.1,1.2-1.2,2-2.1,2h-28.6
			c0.1,5.5,4.6,10.3,11.1,10.3c4.4,0,7.5-1.6,9.6-3.3c1.1-0.9,2.2-1,2.9,0l3.8,5c0.8,0.9,0.9,1.9-0.2,2.9c-3.9,3.3-9.4,6.1-16.6,6.1
			c-13.3,0-22.6-10.6-22.6-23.4C294.3,363.8,303.6,353,316.8,353z M325.1,370.7c-0.2-4.3-3.7-7.7-8.6-7.7c-5.4,0-8.9,3.3-9.5,7.7
			H325.1z"/>
		<path class="st1" d="M352.3,395.6c-0.6-0.4-1.1-1.4-0.6-2.4l2.9-5.8c0.5-1.1,1.5-1.4,2.6-0.8c2,1.2,5.2,2.9,9.8,2.9
			c3.4,0,4.9-1.2,4.9-3.2c0-2-2.5-3.9-8.4-6.2c-8.6-3.3-12.5-7.3-12.5-14.1s5.1-13,16-13c6.6,0,10.8,1.7,13.2,3.3
			c1,0.8,1.5,1.9,1,3.1l-2.5,5.1c-0.7,1.1-1.8,1.2-2.8,0.9c-2.1-1-5.2-2.2-8.9-2.2c-3,0-4.2,1.4-4.2,2.9c0,2,2.2,3.1,6.4,4.8
			c8.6,3.5,14.8,6.6,14.8,15.4c0,7-6,13.3-17.2,13.3C359.4,399.7,354.8,397.3,352.3,395.6z"/>
	</g>
</g>
<path class="st1" d="M175.2,182.2c11.4,0,47.1,0,47.1,0c9.5,0,17.1-7.7,17.1-17.1s-7.7-17.1-17.1-17.1c-8.6,0-25.7,0-68.4,0
	s-56.4,17.8-71.3,32.8l-27.2,23.7c-1.8,1.5-2.8,3.8-2.8,6.1v78.9c0,1,0.6,2,1.6,2.4c1,0.4,2.1,0.3,2.9-0.4l52.5-45
	c1.8-1.6,4.3-2.3,6.7-1.8l81.8,14.9c5.7,1,11.6-0.3,16.3-3.6c0,0,104.5-72.6,112.2-79.1l0,0c7.3-6.7,7.3-16.5,0.5-23.9
	c-6.7-7.3-19.3-5.8-27.7,0.4c-7.7,6.4-60.3,41-60.3,41h-63.9l-0.2,0.1c-3.4-0.1-6-2.9-5.9-6.3c0.1-3.4,2.9-6,6.3-5.9L175.2,182.2z"
	/>
<path class="st2" d="M252.4,4c-15.6,0-29.2,8.3-36.7,20.8c24,8.8,41.3,31.9,41.3,58.9c0,2-0.1,4-0.3,5.9
	c21.7-2.2,38.6-20.4,38.6-42.7C295.3,23.2,276.1,4,252.4,4z"/>
<path class="st3" d="M194.2,34.7c-27.1,0-49,22-49,49s22,49,49,49s49-22,49-49C243.2,56.6,221.3,34.7,194.2,34.7z"/>
<g>
	<path class="st2" d="M192.8,35.4c-27.1,0-49,22-49,49s22,49,49,49s49-22,49-49C241.9,57.3,219.9,35.4,192.8,35.4z"/>
	<rect x="166.5" y="77.4" class="st4" width="52.7" height="14.1"/>
	<rect x="185.8" y="58" class="st4" width="14.1" height="52.7"/>
</g>
</svg>
