<?xml version="1.0" encoding="utf-8"?>
<!-- Generator: Adobe Illustrator 24.3.0, SVG Export Plug-In . SVG Version: 6.00 Build 0)  -->
<svg version="1.1" id="レイヤー_1" xmlns="http://www.w3.org/2000/svg" xmlns:xlink="http://www.w3.org/1999/xlink" x="0px"
	 y="0px" viewBox="0 0 85 30" style="enable-background:new 0 0 85 30;" xml:space="preserve">
<style type="text/css">
	.st0{fill:#ED958E;}
</style>
<g>
	<path class="st0" d="M41.28,10.33c0-1.21-0.02-1.73-0.14-2.57c0.66,0.02,1.27,0.05,1.85,0.12c0.17,0.02,0.27,0.09,0.27,0.17
		c0,0.12-0.05,0.22-0.08,0.34c-0.1,0.22-0.12,0.65-0.12,1.89v9.81c0,1.9,0.03,2.86,0.03,2.96c0,0.17-0.02,0.19-0.19,0.19h-1.48
		c-0.17,0-0.19-0.02-0.19-0.19c0-0.1,0.03-1.05,0.03-2.94v-1.31c-0.93,0.42-1.92,0.82-2.92,1.17c-0.31,0.1-0.56,0.22-0.68,0.31
		c-0.1,0.08-0.17,0.12-0.25,0.12s-0.15-0.07-0.22-0.24c-0.15-0.44-0.32-0.99-0.49-1.63c0.44-0.07,0.82-0.14,1.22-0.24V12.3
		c0-1.21-0.03-1.73-0.14-2.58c0.65,0.02,1.21,0.05,1.8,0.12c0.15,0.02,0.25,0.08,0.25,0.19c0,0.12-0.05,0.22-0.08,0.36
		c-0.08,0.2-0.12,0.63-0.12,1.89v5.47c0.56-0.2,1.09-0.39,1.63-0.63V10.33z M50.14,9.07c0.32,0,0.46-0.02,0.54-0.07
		c0.08-0.05,0.17-0.07,0.25-0.07c0.12,0,0.29,0.12,0.71,0.56c0.29,0.29,0.37,0.48,0.37,0.59s-0.07,0.31-0.15,0.41
		c-0.14,0.17-0.25,0.54-0.36,1.09c-0.48,2.6-1.22,4.79-2.4,6.7c0.92,1.16,2.11,2.18,3.62,3.09c-0.32,0.36-0.61,0.78-0.83,1.24
		c-0.12,0.25-0.2,0.37-0.31,0.37c-0.08,0-0.19-0.07-0.36-0.17c-1.27-0.9-2.35-1.89-3.23-2.99c-0.92,1.14-2.04,2.16-3.38,3.11
		c-0.19,0.12-0.31,0.19-0.41,0.19c-0.14,0-0.22-0.14-0.34-0.41c-0.19-0.42-0.46-0.78-0.78-1.05c1.61-0.97,2.87-2.07,3.86-3.33
		c-1.26-2.07-1.99-4.56-2.28-7.65c-0.53,0-0.75,0.02-0.8,0.02c-0.19,0-0.2-0.02-0.2-0.2V9.22c0-0.17,0.02-0.19,0.2-0.19
		c0.08,0,0.58,0.03,2.06,0.03H50.14z M46.4,10.67c0.24,2.4,0.75,4.33,1.63,6c0.93-1.72,1.48-3.71,1.82-6H46.4z"/>
	<path class="st0" d="M64.25,8.63c1.22,0,1.6-0.03,1.7-0.03c0.15,0,0.22,0.03,0.22,0.2c-0.03,0.61,0,1.07,0.1,1.89
		c0.53,4.59,2.62,8.09,6.61,10.5c-0.31,0.29-0.7,0.71-1,1.29c-0.14,0.27-0.2,0.39-0.31,0.39c-0.08,0-0.2-0.08-0.39-0.22
		c-3.09-2.28-4.98-5.05-5.83-8.43c-0.92,3.48-3.18,6.56-6.25,8.47c-0.2,0.12-0.31,0.2-0.39,0.2c-0.12,0-0.19-0.14-0.36-0.41
		c-0.27-0.46-0.66-0.87-1-1.12c4.21-2.07,6.61-6.14,6.83-11h-2.11c-1.22,0-1.6,0.03-1.7,0.03c-0.19,0-0.2-0.02-0.2-0.19V8.78
		c0-0.17,0.02-0.19,0.2-0.19c0.1,0,0.48,0.03,1.7,0.03H64.25z"/>
</g>
<g>
	<g>
		<path class="st0" d="M20.75,2.97c-0.35-0.35-0.92-0.35-1.26,0l-12.6,12.6c-0.35,0.35-0.72,1.03-0.82,1.51l-1.8,8.48
			c-0.1,0.48,0.21,0.79,0.69,0.69l8.47-1.8c0.48-0.1,1.16-0.47,1.51-0.82l12.6-12.6c0.35-0.35,0.35-0.92,0-1.26L20.75,2.97z
			 M8.4,16.52L20.12,4.81l2.47,2.47L10.87,18.99L8.4,16.52z M13.24,22.66l-3.97,0.87l-2.28-2.28l0.87-3.97L13.24,22.66z M25.71,10.4
			L13.99,22.11l-2.47-2.47L23.24,7.93L25.71,10.4z"/>
	</g>
</g>
</svg>
