<?xml version="1.0" encoding="utf-8"?>
<!-- Generator: Adobe Illustrator 24.3.0, SVG Export Plug-In . SVG Version: 6.00 Build 0)  -->
<svg version="1.1" id="レイヤー_1" xmlns="http://www.w3.org/2000/svg" xmlns:xlink="http://www.w3.org/1999/xlink" x="0px"
	 y="0px" viewBox="0 0 100 100" style="enable-background:new 0 0 100 100;" xml:space="preserve">
<style type="text/css">
	.st0{fill:#F4A7A2;}
	.st1{fill:#FFFFFF;}
</style>
<g>
	<g>
		<path class="st0" d="M100.28,95.11c0,2.75-2.25,5-5,5h-90c-2.75,0-5-2.25-5-5v-90c0-2.75,2.25-5,5-5h90c2.75,0,5,2.25,5,5V95.11z"
			/>
	</g>
	<g>
		<g>
			<path class="st1" d="M29.36,28.71c-0.44,0-0.68,0.01-0.95,0.04v-1.11c0.26,0.04,0.48,0.05,0.97,0.05h0.25
				c-0.15-0.58-0.25-0.85-0.46-1.23l0.92-0.23H29.6c-0.46,0-0.7,0.01-0.98,0.04v-1.11c0.26,0.04,0.5,0.05,1,0.05h0.79v-0.16
				c0-0.35-0.01-0.5-0.05-0.76h1.26c-0.04,0.25-0.05,0.39-0.05,0.76v0.16h0.71c0.49,0,0.7-0.01,0.97-0.05v1.11
				c-0.28-0.03-0.53-0.04-0.98-0.04h-0.43l0.88,0.25c-0.06,0.14-0.06,0.14-0.16,0.36c-0.06,0.1-0.06,0.1-0.18,0.38
				c-0.07,0.18-0.11,0.25-0.23,0.46h0.21c0.47,0,0.69-0.01,0.96-0.05v1.11c-0.29-0.03-0.51-0.04-0.96-0.04h-0.84v0.74h0.8
				c0.45,0,0.68-0.01,0.95-0.05v1.09c-0.27-0.03-0.51-0.04-0.95-0.04h-0.39c0.31,0.36,0.57,0.58,1.07,0.92
				c-0.23,0.39-0.34,0.6-0.5,0.99c-0.52-0.47-0.69-0.65-1.02-1.12c0.01,0.14,0.01,0.14,0.02,0.41c0,0.03,0.01,0.35,0.01,0.41v1.04
				c0,0.36,0.02,0.61,0.06,0.86h-1.2c0.03-0.24,0.05-0.49,0.05-0.82v-1.04c0-0.2,0.01-0.47,0.03-0.71c-0.43,0.8-0.91,1.34-1.72,1.93
				c-0.15-0.43-0.29-0.72-0.53-1.06c0.79-0.49,1.37-1.06,1.82-1.79h-0.68c-0.45,0-0.67,0.01-0.95,0.05v-1.1
				c0.27,0.04,0.48,0.05,0.97,0.05h1.05v-0.53c0-0.19,0-0.19,0-0.21L29.36,28.71L29.36,28.71z M30.16,26.23
				c0.23,0.45,0.31,0.67,0.45,1.21l-0.93,0.25h1.43c0.29-0.54,0.43-0.87,0.58-1.46H30.16z M37.11,27.49c0.46,0,0.72-0.02,0.95-0.06
				v1.16c-0.26-0.03-0.43-0.04-0.83-0.04h-0.26v4.19c0,0.62,0.01,0.92,0.06,1.23h-1.22c0.05-0.32,0.06-0.62,0.06-1.23v-4.19h-1.11
				c-0.01,1.32-0.14,2.41-0.39,3.36c-0.21,0.81-0.53,1.54-0.93,2.09c-0.42-0.34-0.59-0.46-1.03-0.69c0.99-1.21,1.25-2.57,1.25-6.51
				c0-0.87-0.01-1.21-0.06-1.62c1.18-0.03,2.98-0.49,3.51-0.88l0.85,1.01c-0.11,0.03-0.16,0.05-0.34,0.11
				c-0.83,0.31-1.49,0.47-2.85,0.71v1.37L37.11,27.49L37.11,27.49z"/>
			<path class="st1" d="M42.5,29.43c0.48,0.84,0.88,1.32,1.6,1.91c-0.06,0.08-0.1,0.15-0.14,0.19c-0.22,0.29-0.22,0.29-0.49,0.8
				c-0.61-0.61-0.9-0.98-1.25-1.64c-0.14,0.53-0.28,0.93-0.53,1.42c-0.34,0.66-0.6,1.01-1.17,1.53c-0.3-0.44-0.44-0.58-0.82-0.91
				c0.63-0.54,0.95-0.94,1.23-1.59c0.21-0.49,0.34-0.99,0.44-1.71H40.9c-0.36,0-0.7,0.02-0.98,0.06v-1.18
				c0.28,0.04,0.56,0.06,0.93,0.06h0.59c0.02-0.46,0.03-0.77,0.04-1.35h-0.53c-0.3,0-0.56,0.02-0.87,0.05v-1.1
				c0.29,0.04,0.55,0.06,0.93,0.06h0.49c0-1.02,0-1.19-0.06-1.57h1.21c-0.05,0.34-0.05,0.34-0.06,1.57h0.36
				c0.36,0,0.61-0.01,0.91-0.05v1.09c-0.28-0.04-0.5-0.05-0.81-0.05h-0.47c-0.01,0.59-0.02,0.81-0.05,1.35H43
				c0.35,0,0.62-0.01,0.91-0.05v1.15c-0.28-0.04-0.5-0.05-0.81-0.05h-0.6V29.43z M46.06,30.77c-0.1,0.95-0.25,1.37-0.61,1.89
				c-0.41,0.55-0.85,0.89-1.84,1.38c-0.33-0.47-0.48-0.62-0.81-0.91c1.48-0.47,2.08-1.1,2.23-2.37c-0.29,0-0.57,0.01-0.82,0.03
				c0.02-0.26,0.03-0.58,0.03-1.03v-4.02c0-0.44-0.01-0.79-0.04-1.03c0.24,0.03,0.53,0.04,1,0.04h2.62c0.56,0,0.74-0.01,1.01-0.04
				c-0.03,0.29-0.04,0.58-0.04,1.05v4.04c0,0.43,0.01,0.68,0.04,1c-0.12-0.02-0.16-0.02-0.3-0.02c-0.07,0-0.15,0-0.21,0
				c-0.25-0.01-0.42-0.02-0.44-0.02h-0.24v1.8c0,0.19,0.08,0.23,0.42,0.23c0.44,0,0.47-0.08,0.52-1.45
				c0.33,0.23,0.57,0.35,0.97,0.47c-0.1,1.82-0.27,2.02-1.64,2.02c-0.96,0-1.3-0.2-1.3-0.75v-2.32h-0.55V30.77z M45.29,26.47h2.42
				v-0.7h-2.42V26.47z M45.29,28.1h2.42v-0.7h-2.42V28.1z M45.29,29.77h2.42v-0.73h-2.42V29.77z"/>
			<path class="st1" d="M54.67,24.61c-0.12,0.26-0.15,0.33-0.24,0.58c-0.17,0.45-0.17,0.45-0.71,1.67v5.77
				c0,0.49,0.02,0.91,0.07,1.29h-1.25c0.05-0.4,0.07-0.75,0.07-1.29v-2.97c0-0.26,0-0.31,0.03-1.19c-0.36,0.49-0.62,0.81-1,1.2
				c-0.15-0.48-0.29-0.78-0.55-1.22c0.77-0.7,1.45-1.68,1.98-2.87c0.23-0.54,0.38-0.97,0.44-1.37L54.67,24.61z M56.36,26.83
				c-0.46,0.93-1,1.74-1.71,2.54c-0.25-0.43-0.4-0.61-0.75-0.98c0.79-0.81,1.3-1.6,1.75-2.65c0.26-0.62,0.42-1.15,0.47-1.51
				l1.18,0.34c-0.1,0.25-0.14,0.34-0.21,0.55c-0.16,0.44-0.17,0.47-0.26,0.7h2.83c0.51,0,0.83-0.02,1.12-0.06v1.12
				c-0.3-0.03-0.67-0.05-1.12-0.05h-1.98v1.33h1.7c0.44,0,0.72-0.02,1.03-0.06v1.12c-0.33-0.04-0.65-0.06-1.04-0.06h-1.69v1.33h1.71
				c0.45,0,0.73-0.01,1.04-0.06v1.13c-0.34-0.04-0.64-0.06-1.04-0.06h-1.71v1.2c0,0.62,0.02,0.96,0.07,1.25H56.5
				c0.05-0.3,0.06-0.61,0.06-1.25v-5.87C56.56,26.83,56.36,26.83,56.36,26.83z"/>
			<path class="st1" d="M71.65,27.96c-0.06,0.16-0.06,0.16-0.23,0.55c-0.46,1.12-0.88,1.88-1.41,2.6c0.2,0.36,0.41,0.66,0.62,0.9
				c0.18,0.19,0.41,0.37,0.47,0.37c0.04,0,0.08-0.06,0.13-0.2c0.07-0.24,0.07-0.24,0.2-1.22c0.35,0.35,0.49,0.46,0.94,0.7
				c-0.24,1.4-0.6,2.02-1.18,2.02c-0.53,0-1.35-0.7-1.96-1.68c-0.78,0.77-1.59,1.36-2.52,1.82c-0.32-0.48-0.44-0.6-0.79-0.91
				c1.09-0.45,2.01-1.07,2.8-1.91c-0.44-1.07-0.67-2.32-0.78-4.15h-3.23c-0.01,1-0.01,1-0.02,1.37h1.92c0.36,0,0.52-0.01,0.74-0.04
				c-0.02,0.19-0.04,0.48-0.06,0.88c-0.1,1.87-0.17,2.42-0.34,2.86c-0.17,0.42-0.54,0.57-1.34,0.57c-0.29,0-0.46-0.01-0.79-0.03
				c-0.05-0.45-0.11-0.7-0.27-1.1c0.55,0.07,0.71,0.08,1.01,0.08c0.32,0,0.42-0.06,0.47-0.32c0.08-0.36,0.13-1.04,0.16-1.88h-1.52
				c-0.07,1.19-0.17,1.9-0.32,2.61c-0.19,0.83-0.4,1.3-0.85,2.03c-0.32-0.42-0.53-0.61-0.91-0.88c0.36-0.56,0.58-1.05,0.72-1.64
				c0.21-0.87,0.31-2.26,0.31-4.11c0-0.8-0.01-1.06-0.06-1.48c0.38,0.03,0.8,0.05,1.34,0.05h3.02c-0.01-0.08-0.01-0.35-0.03-0.81
				c-0.01-0.39-0.01-0.43-0.05-0.66h1.24c-0.03,0.22-0.05,0.65-0.05,0.99c0,0.09,0,0.37,0,0.48h1.37c-0.29-0.38-0.49-0.6-0.92-0.96
				l0.8-0.51c0.48,0.41,0.66,0.58,1.05,1.09l-0.54,0.37h0.31c0.55,0,0.83-0.01,1.1-0.06v1.15c-0.34-0.03-0.74-0.05-1.27-0.05h-1.87
				c0.09,1.36,0.24,2.32,0.48,3.11c0.52-0.84,0.87-1.71,1-2.44L71.65,27.96z"/>
		</g>
	</g>
	<g>
		<g>
			<path class="st1" d="M28.35,46.56c0.36-0.13,0.48-0.17,0.9-0.33v-3.9c0-0.45-0.01-0.69-0.05-1.01h1.06
				c-0.04,0.31-0.05,0.55-0.05,1.01v6.04c0,0.11,0,0.11,0,0.19c0.43-0.26,0.59-0.38,0.94-0.7c0.4-0.36,0.7-0.69,0.97-1.07
				c-0.68-1.12-1-2.18-1.24-4.13c-0.22,0.01-0.32,0.02-0.46,0.04v-1c0.29,0.04,0.54,0.05,0.92,0.05h2.71c0.26,0,0.45-0.01,0.7-0.04
				c-0.02,0.11-0.02,0.11-0.04,0.32c-0.22,1.91-0.68,3.41-1.45,4.72c0.62,0.72,1.1,1.14,1.94,1.65c-0.24,0.36-0.33,0.55-0.5,0.99
				c-0.78-0.53-1.5-1.16-2.01-1.79c-0.61,0.77-1.18,1.32-1.96,1.84c-0.11-0.31-0.23-0.5-0.52-0.84c0.01,0.33,0.02,0.51,0.05,0.77
				H29.2c0.04-0.33,0.05-0.56,0.05-1.01v-1.23c-0.49,0.2-1.11,0.44-1.81,0.68c-0.19,0.06-0.23,0.08-0.41,0.15l-0.18-1.01
				c0.26-0.04,0.35-0.06,0.57-0.12v-3.68c0-0.45-0.01-0.69-0.05-1.01h1.03c-0.04,0.32-0.05,0.55-0.05,1.01
				C28.35,43.15,28.35,46.56,28.35,46.56z M31.78,42.66c0.1,0.78,0.14,1.04,0.26,1.52c0.17,0.7,0.35,1.2,0.63,1.72
				c0.52-1.01,0.79-1.92,0.97-3.24H31.78z"/>
			<path class="st1" d="M39.03,42.65c-0.24,0-0.5,0.02-0.85,0.04v-1.06c0.26,0.04,0.44,0.04,0.83,0.04h1.4c0.36,0,0.6-0.01,0.8-0.04
				c-0.03,0.26-0.03,0.33-0.03,0.55c0,1.25,0.32,2.41,0.94,3.49c0.37,0.62,0.8,1.14,1.41,1.69c0.45,0.41,0.7,0.6,1.3,0.95
				c-0.33,0.33-0.5,0.55-0.75,0.99c-0.88-0.62-1.54-1.26-2.14-2.07c-0.33-0.43-0.52-0.77-0.77-1.3c-0.23-0.48-0.31-0.7-0.45-1.25
				c-0.32,1.13-0.67,1.88-1.26,2.66c-0.56,0.73-1.22,1.35-2.18,1.99c-0.19-0.39-0.39-0.65-0.72-0.92c0.75-0.43,1.18-0.77,1.77-1.38
				c0.69-0.71,1.22-1.66,1.51-2.61c0.18-0.61,0.26-1.07,0.29-1.78L39.03,42.65L39.03,42.65z"/>
			<path class="st1" d="M46.92,42.35c0.36,0.08,0.92,0.11,2.04,0.11c0.24-0.53,0.32-0.79,0.35-1.09l1.15,0.12
				c-0.05,0.09-0.05,0.09-0.35,0.79c-0.04,0.1-0.06,0.12-0.08,0.16c0.07-0.01,0.07-0.01,0.55-0.04c1.02-0.06,1.82-0.16,2.31-0.3
				l0.06,1c-0.25,0.02-0.25,0.02-0.7,0.07c-0.64,0.08-1.76,0.15-2.65,0.18c-0.26,0.5-0.5,0.85-0.81,1.17l0.01,0.02
				c0.06-0.04,0.06-0.04,0.18-0.13c0.33-0.25,0.79-0.4,1.24-0.4c0.69,0,1.12,0.33,1.26,0.93c0.68-0.25,1.13-0.41,1.35-0.48
				c0.48-0.17,0.51-0.18,0.65-0.26l0.41,1.01c-0.25,0.04-0.51,0.11-0.98,0.24c-0.12,0.04-0.56,0.18-1.32,0.45V46
				c0.01,0.23,0.01,0.23,0.01,0.35c0,0.09,0,0.24,0,0.35c-0.01,0.15-0.01,0.23-0.01,0.29c0,0.19,0.01,0.32,0.03,0.47l-1.02,0.03
				c0.04-0.16,0.05-0.61,0.05-1.02c0-0.12,0-0.12,0-0.21c-0.43,0.2-0.66,0.33-0.85,0.46c-0.31,0.23-0.46,0.47-0.46,0.72
				c0,0.46,0.42,0.64,1.49,0.64c1.06,0,1.96-0.13,2.59-0.37l0.09,1.14c-0.15,0-0.19,0.01-0.4,0.04c-0.63,0.1-1.48,0.16-2.25,0.16
				c-0.93,0-1.51-0.11-1.96-0.37c-0.41-0.23-0.64-0.65-0.64-1.14c0-0.36,0.11-0.64,0.39-0.98c0.4-0.49,0.9-0.83,1.89-1.24
				C50.5,45,50.32,44.85,50,44.85c-0.51,0-1.13,0.31-1.8,0.91c-0.37,0.31-0.57,0.53-0.77,0.8l-0.8-0.79
				c0.23-0.18,0.48-0.42,0.79-0.78c0.34-0.41,0.88-1.17,1.06-1.51c0.04-0.07,0.04-0.07,0.07-0.11c-0.04,0-0.15,0.01-0.15,0.01
				c-0.14,0-0.92-0.02-1.11-0.02c-0.17-0.01-0.17-0.01-0.25-0.01c-0.03,0-0.08,0-0.14,0.01L46.92,42.35z"/>
			<path class="st1" d="M56.03,42.75c0.21,0.04,0.38,0.04,0.7,0.04h2.17c0.36,0,0.51-0.01,0.7-0.04v0.91
				c-0.18-0.03-0.31-0.04-0.67-0.04h-2.21c-0.31,0-0.49,0.01-0.7,0.04L56.03,42.75L56.03,42.75z M56.33,41.5
				c0.24,0.04,0.38,0.04,0.73,0.04h1.51c0.35,0,0.49-0.01,0.73-0.04v0.87c-0.25-0.03-0.41-0.04-0.73-0.04h-1.51
				c-0.32,0-0.51,0.01-0.73,0.04V41.5z M56.35,49.44c0.04-0.27,0.05-0.55,0.05-0.86v-1.3c0-0.28-0.01-0.48-0.04-0.7
				c0.22,0.02,0.35,0.03,0.69,0.03h1.73c0.34,0,0.44,0,0.59-0.03c-0.03,0.19-0.03,0.31-0.03,0.63v1.48c0,0.21,0.02,0.48,0.04,0.62
				h-0.9v-0.35h-1.19v0.48H56.35z M56.36,44.08c0.18,0.02,0.29,0.03,0.58,0.03h1.81c0.29,0,0.4-0.01,0.56-0.03v0.82
				c-0.19-0.02-0.3-0.03-0.56-0.03h-1.81c-0.28,0-0.4,0.01-0.58,0.03V44.08z M56.36,45.32c0.18,0.02,0.29,0.03,0.58,0.03h1.81
				c0.29,0,0.4-0.01,0.56-0.03v0.82c-0.2-0.03-0.29-0.03-0.58-0.03h-1.81c-0.26,0-0.4,0.01-0.57,0.03L56.36,45.32L56.36,45.32z
				 M57.26,48.18h1.21v-0.83h-1.21V48.18z M60.84,47.98c0,0.18,0.04,0.23,0.2,0.26c0.17,0.04,0.43,0.05,0.77,0.05
				c0.7,0,0.97-0.04,1.1-0.18s0.19-0.53,0.21-1.44c0.33,0.16,0.67,0.27,0.97,0.33c-0.07,1.02-0.17,1.47-0.41,1.79
				c-0.23,0.31-0.7,0.41-1.9,0.41c-1.61,0-1.93-0.14-1.93-0.89V45.2c0-0.42-0.01-0.59-0.04-0.86c0.26,0.03,0.5,0.04,0.88,0.04h1.98
				v-1.87h-2.03c-0.39,0-0.65,0.02-0.92,0.04v-0.99c0.28,0.04,0.55,0.05,0.92,0.05h2.13c0.39,0,0.64-0.01,0.9-0.04
				c-0.03,0.31-0.04,0.47-0.04,0.89v1.95c0,0.37,0.01,0.62,0.04,0.87c-0.28-0.03-0.48-0.04-0.88-0.04h-1.97v2.74H60.84z"/>
			<path class="st1" d="M68.07,42.65c-0.24,0-0.5,0.02-0.85,0.04v-1.06c0.26,0.04,0.44,0.04,0.83,0.04h1.4c0.36,0,0.6-0.01,0.8-0.04
				c-0.03,0.26-0.03,0.33-0.03,0.55c0,1.25,0.32,2.41,0.94,3.49c0.37,0.62,0.8,1.14,1.41,1.69c0.45,0.41,0.7,0.6,1.3,0.95
				c-0.33,0.33-0.5,0.55-0.75,0.99c-0.88-0.62-1.54-1.26-2.14-2.07c-0.33-0.43-0.52-0.77-0.77-1.3c-0.23-0.48-0.31-0.7-0.45-1.25
				c-0.32,1.13-0.67,1.88-1.26,2.66c-0.56,0.73-1.22,1.35-2.18,1.99c-0.18-0.39-0.39-0.65-0.72-0.92c0.75-0.43,1.18-0.77,1.77-1.38
				c0.69-0.71,1.22-1.66,1.5-2.61c0.18-0.61,0.26-1.07,0.29-1.78L68.07,42.65L68.07,42.65z"/>
		</g>
	</g>
	<g>
		<g>
			<path class="st1" d="M45.9,63.96c0.72,0,1.28,0.31,1.72,0.78c0.1,0.1,0.05,0.23-0.05,0.33l-0.42,0.46
				c-0.1,0.11-0.21,0.06-0.3-0.03c-0.22-0.21-0.49-0.4-0.92-0.4c-0.72,0-1.22,0.56-1.22,1.27c0,0.72,0.49,1.28,1.21,1.28
				c0.51,0,0.78-0.28,0.98-0.51c0.07-0.08,0.21-0.1,0.29-0.03l0.45,0.38c0.11,0.1,0.16,0.21,0.08,0.33
				c-0.39,0.61-1.01,0.97-1.83,0.97c-1.35,0-2.44-1.03-2.44-2.42C43.45,65.01,44.53,63.96,45.9,63.96z"/>
			<path class="st1" d="M49.66,61.9c0-0.11,0.11-0.22,0.22-0.22h0.81c0.11,0,0.22,0.11,0.22,0.22v6.56c0,0.12-0.11,0.22-0.22,0.22
				h-0.81c-0.11,0-0.22-0.1-0.22-0.22V61.9z"/>
			<path class="st1" d="M53.02,62.47c0-0.44,0.34-0.79,0.79-0.79s0.8,0.35,0.8,0.79c0,0.44-0.35,0.8-0.8,0.8
				S53.02,62.91,53.02,62.47z M53.2,64.28c0-0.13,0.11-0.22,0.22-0.22h0.81c0.11,0,0.22,0.09,0.22,0.22v4.18
				c0,0.12-0.11,0.22-0.22,0.22h-0.81c-0.11,0-0.22-0.1-0.22-0.22V64.28z"/>
			<path class="st1" d="M58.9,63.96c0.72,0,1.28,0.31,1.72,0.78c0.1,0.1,0.05,0.23-0.05,0.33l-0.42,0.46
				c-0.1,0.11-0.21,0.06-0.3-0.03c-0.22-0.21-0.49-0.4-0.92-0.4c-0.72,0-1.22,0.56-1.22,1.27c0,0.72,0.49,1.28,1.21,1.28
				c0.51,0,0.78-0.28,0.98-0.51c0.07-0.08,0.21-0.1,0.29-0.03l0.45,0.38c0.11,0.1,0.16,0.21,0.08,0.33
				c-0.39,0.61-1.01,0.97-1.83,0.97c-1.35,0-2.44-1.03-2.44-2.42C56.45,65.01,57.53,63.96,58.9,63.96z"/>
			<path class="st1" d="M62.65,61.9c0-0.11,0.11-0.22,0.22-0.22h0.81c0.12,0,0.22,0.11,0.22,0.22v3.91l1.59-1.61
				c0.08-0.07,0.16-0.14,0.29-0.14h0.94c0.19,0,0.26,0.21,0.15,0.34l-1.83,1.8l1.92,2.15c0.12,0.13,0.05,0.33-0.14,0.33h-0.98
				c-0.08,0-0.17-0.04-0.2-0.09l-1.74-2.08v1.95c0,0.12-0.1,0.22-0.22,0.22h-0.81c-0.11,0-0.22-0.1-0.22-0.22V61.9z"/>
		</g>
	</g>
</g>
<path class="st1" d="M34.52,60.89c-2.76,0-5,2.24-5,5c0,2.76,2.24,5,5,5s5-2.24,5-5C39.52,63.13,37.28,60.89,34.52,60.89z"/>
<rect x="31.83" y="65.17" class="st0" width="5.38" height="1.43"/>
<rect x="33.8" y="63.2" class="st0" width="1.43" height="5.38"/>
</svg>
