<?xml version="1.0" encoding="utf-8"?>
<!-- Generator: Adobe Illustrator 24.3.0, SVG Export Plug-In . SVG Version: 6.00 Build 0)  -->
<svg version="1.1" id="レイヤー_1" xmlns="http://www.w3.org/2000/svg" xmlns:xlink="http://www.w3.org/1999/xlink" x="0px"
	 y="0px" viewBox="0 0 100 100" style="enable-background:new 0 0 100 100;" xml:space="preserve">
<style type="text/css">
	.st0{fill:#62524D;}
</style>
<g>
	<g>
		<path class="st0" d="M69.65,2.08c-1.45-1.45-3.81-1.45-5.26,0L11.97,54.51c-1.45,1.45-2.98,4.27-3.4,6.27L1.08,96.05
			c-0.42,2,0.87,3.29,2.87,2.87l35.26-7.48c2-0.42,4.82-1.96,6.27-3.4L97.92,35.6c1.45-1.45,1.45-3.81,0-5.26L69.65,2.08z
			 M18.27,58.45L67.02,9.7l10.28,10.28L28.55,68.73L18.27,58.45z M38.39,83.99l-16.53,3.64l-9.48-9.48l3.64-16.54L38.39,83.99z
			 M90.29,32.97L41.54,81.72L31.26,71.44l48.75-48.75L90.29,32.97z"/>
	</g>
</g>
</svg>
