<?xml version="1.0" encoding="utf-8"?>
<!-- Generator: Adobe Illustrator 24.3.0, SVG Export Plug-In . SVG Version: 6.00 Build 0)  -->
<svg version="1.1" id="レイヤー_1" xmlns="http://www.w3.org/2000/svg" xmlns:xlink="http://www.w3.org/1999/xlink" x="0px"
	 y="0px" viewBox="0 0 116 30" style="enable-background:new 0 0 116 30;" xml:space="preserve">
<style type="text/css">
	.st0{fill:#62524D;}
	.st1{fill:#FAB9B2;}
	.st2{fill:#DBB8AD;}
	.st3{fill:#FFFFFF;}
	.st4{clip-path:url(#SVGID_2_);fill:#FFFFFF;}
</style>
<g>
	<g>
		<g>
			<g>
				<path class="st0" d="M30.7,9.4c0-0.2,0.2-0.4,0.4-0.4h1.3c0.2,0,0.4,0.2,0.4,0.4V13c0.3-0.1,1.1-0.3,1.8-0.3
					c2.2,0,3.6,1.7,3.6,3.9c0,2.1-1.5,3.9-3.5,3.9c-1.6,0-2.5-1.1-2.5-1.1L32,20c-0.1,0.2-0.2,0.4-0.4,0.4h-0.6
					c-0.2,0-0.4-0.2-0.4-0.4C30.7,20,30.7,9.4,30.7,9.4z M34.4,18.7c1.2,0,1.8-1,1.8-2.1s-0.6-2.1-1.9-2.1c-0.9,0-1.5,0.4-1.5,0.4
					v2.7C32.9,18,33.4,18.7,34.4,18.7z"/>
				<path class="st0" d="M46.2,15.6c0.8,0,1.4,0.2,1.4,0.2c0-0.9-0.2-1.4-1-1.4c-0.7,0-1.7,0.1-2.1,0.3c-0.2,0.1-0.4-0.1-0.4-0.3
					L44,13.5c-0.1-0.3,0.1-0.4,0.2-0.4c0.2-0.1,1.3-0.4,2.6-0.4c2.3,0,2.8,1.2,2.8,3.2v4c0,0.2-0.2,0.4-0.4,0.4h-0.5
					c-0.1,0-0.2,0-0.3-0.3l-0.2-0.5c-0.4,0.4-1.2,0.9-2.3,0.9c-1.5,0-2.5-1-2.5-2.6C43.3,16.6,44.4,15.6,46.2,15.6z M46.3,19
					c0.7,0,1.2-0.5,1.3-0.8v-1.1c0,0-0.5-0.2-1.1-0.2c-0.9,0-1.3,0.4-1.3,1.1C45.2,18.6,45.6,19,46.3,19z"/>
				<path class="st0" d="M56.5,9.4c0-0.2,0.2-0.4,0.4-0.4h1.3c0.2,0,0.4,0.2,0.4,0.4V20c0,0.2-0.2,0.4-0.4,0.4h-1.3
					c-0.2,0-0.4-0.2-0.4-0.4V9.4z"/>
				<path class="st0" d="M67.9,15.6c0.8,0,1.4,0.2,1.4,0.2c0-0.9-0.2-1.4-1-1.4c-0.7,0-1.7,0.1-2.1,0.3c-0.2,0.1-0.4-0.1-0.4-0.3
					l-0.2-0.8c-0.1-0.3,0.1-0.4,0.2-0.4c0.2-0.1,1.3-0.4,2.6-0.4c2.3,0,2.8,1.2,2.8,3.2v4c0,0.2-0.2,0.4-0.4,0.4h-0.6
					c-0.1,0-0.2,0-0.3-0.3l-0.2-0.5c-0.4,0.4-1.2,0.9-2.3,0.9c-1.5,0-2.5-1-2.5-2.6C64.9,16.6,66,15.6,67.9,15.6z M67.9,19
					c0.7,0,1.2-0.5,1.3-0.8v-1.1c0,0-0.5-0.2-1.1-0.2c-0.9,0-1.3,0.4-1.3,1.1C66.9,18.6,67.2,19,67.9,19z"/>
				<path class="st0" d="M77.6,13.2c0-0.2,0.2-0.4,0.4-0.4h0.6c0.2,0,0.3,0.1,0.3,0.2l0.3,0.7c0.3-0.3,1-1.1,2.4-1.1
					c2.4,0,3,1.6,3,3.4V20c0,0.2-0.2,0.4-0.4,0.4h-1.3c-0.2,0-0.4-0.2-0.4-0.4v-3.9c0-1-0.4-1.6-1.3-1.6c-1,0-1.4,0.6-1.6,1.2V20
					c0,0.3-0.1,0.4-0.5,0.4h-1.2c-0.2,0-0.4-0.2-0.4-0.4L77.6,13.2L77.6,13.2z"/>
				<path class="st0" d="M94.9,12.7c1.2,0,2.1,0.5,2.8,1.3c0.2,0.2,0.1,0.4-0.1,0.5l-0.7,0.7c-0.2,0.2-0.3,0.1-0.5-0.1
					c-0.4-0.3-0.8-0.6-1.5-0.6c-1.2,0-2,0.9-2,2.1c0,1.2,0.8,2.1,2,2.1c0.8,0,1.3-0.5,1.6-0.8c0.1-0.1,0.3-0.2,0.5,0l0.7,0.6
					c0.2,0.2,0.3,0.3,0.1,0.5c-0.6,1-1.6,1.6-3,1.6c-2.2,0-3.9-1.7-3.9-3.9C90.9,14.4,92.7,12.7,94.9,12.7z"/>
				<path class="st0" d="M107.1,12.7c1.9,0,3.4,1.4,3.4,3.5c0,0.1,0,0.4,0,0.5c0,0.2-0.2,0.3-0.4,0.3h-4.8c0,0.9,0.8,1.7,1.9,1.7
					c0.7,0,1.3-0.3,1.6-0.5c0.2-0.1,0.4-0.2,0.5,0l0.6,0.8c0.1,0.1,0.2,0.3,0,0.5c-0.7,0.5-1.6,1-2.8,1c-2.2,0-3.8-1.8-3.8-3.9
					C103.3,14.5,104.9,12.7,107.1,12.7z M108.5,15.7c0-0.7-0.6-1.3-1.4-1.3c-0.9,0-1.5,0.6-1.6,1.3H108.5z"/>
			</g>
		</g>
	</g>
	<path class="st1" d="M18.5,5.2c-2.2,0-4.1,1.2-5.1,2.9c3.3,1.2,5.7,4.4,5.7,8.2c0,0.3,0,0.5,0,0.8c3-0.3,5.4-2.8,5.4-5.9
		C24.5,7.9,21.8,5.2,18.5,5.2z"/>
	<path class="st2" d="M10.4,9.5c-3.8,0-6.8,3.1-6.8,6.8s3,6.8,6.8,6.8s6.8-3,6.8-6.8C17.2,12.5,14.2,9.5,10.4,9.5z"/>
	<g>
		<path class="st1" d="M10.2,9.6c-3.8,0-6.8,3.1-6.8,6.8s3,6.8,6.8,6.8s6.8-3,6.8-6.8C17,12.6,14,9.6,10.2,9.6z"/>
		<rect x="6.6" y="15.4" class="st3" width="7.3" height="2"/>
		<rect x="9.3" y="12.7" class="st3" width="2" height="7.3"/>
	</g>
	<g>
		<g>
			<defs>
				<circle id="SVGID_1_" cx="20.6" cy="7.6" r="6.1"/>
			</defs>
			<clipPath id="SVGID_2_">
				<use xlink:href="#SVGID_1_"  style="overflow:visible;"/>
			</clipPath>
			<rect x="14.3" y="10.2" class="st4" width="7.3" height="1.9"/>
		</g>
	</g>
</g>
</svg>
