<?xml version="1.0" encoding="utf-8"?>
<!-- Generator: Adobe Illustrator 24.3.0, SVG Export Plug-In . SVG Version: 6.00 Build 0)  -->
<svg version="1.1" id="レイヤー_1" xmlns="http://www.w3.org/2000/svg" xmlns:xlink="http://www.w3.org/1999/xlink" x="0px"
	 y="0px" viewBox="0 0 116 30" style="enable-background:new 0 0 116 30;" xml:space="preserve">
<style type="text/css">
	.st0{fill:#62524D;}
	.st1{fill:#DBB8AD;}
	.st2{fill:#FFFFFF;}
	.st3{clip-path:url(#SVGID_2_);fill:#FFFFFF;}
</style>
<g>
	<g>
		<g>
			<g>
				<path class="st0" d="M30.73,9.36c0-0.18,0.18-0.36,0.36-0.36h1.31c0.19,0,0.36,0.18,0.36,0.36v3.66
					c0.34-0.15,1.08-0.32,1.83-0.32c2.22,0,3.62,1.72,3.62,3.9c0,2.14-1.47,3.92-3.51,3.92c-1.63,0-2.49-1.12-2.49-1.12l-0.18,0.58
					c-0.08,0.21-0.19,0.36-0.37,0.36h-0.57c-0.18,0-0.36-0.16-0.36-0.36V9.36z M34.41,18.67c1.17,0,1.76-1.02,1.76-2.07
					c0-1.05-0.63-2.06-1.86-2.06c-0.94,0-1.55,0.42-1.55,0.42v2.67C32.92,18.05,33.44,18.67,34.41,18.67z"/>
				<path class="st0" d="M46.25,15.61c0.76,0,1.44,0.21,1.44,0.21c0.03-0.95-0.24-1.41-1.04-1.41c-0.68,0-1.67,0.15-2.1,0.28
					c-0.24,0.08-0.39-0.1-0.42-0.32l-0.16-0.84c-0.06-0.27,0.08-0.4,0.24-0.45c0.16-0.06,1.34-0.37,2.56-0.37
					c2.33,0,2.82,1.21,2.82,3.25v4.03c0,0.19-0.16,0.36-0.36,0.36h-0.55c-0.13,0-0.23-0.05-0.32-0.26l-0.21-0.5
					c-0.44,0.42-1.18,0.94-2.35,0.94c-1.49,0-2.52-0.96-2.52-2.56C43.28,16.63,44.36,15.61,46.25,15.61z M46.3,19.01
					c0.66,0,1.25-0.52,1.34-0.79v-1.1c0,0-0.5-0.23-1.1-0.23c-0.86,0-1.33,0.4-1.33,1.07C45.22,18.59,45.61,19.01,46.3,19.01z"/>
				<path class="st0" d="M56.47,9.36c0-0.18,0.18-0.36,0.36-0.36h1.31c0.18,0,0.36,0.18,0.36,0.36v10.62c0,0.19-0.18,0.36-0.36,0.36
					h-1.31c-0.18,0-0.36-0.16-0.36-0.36V9.36z"/>
				<path class="st0" d="M67.89,15.61c0.76,0,1.44,0.21,1.44,0.21c0.03-0.95-0.24-1.41-1.04-1.41c-0.68,0-1.67,0.15-2.1,0.28
					c-0.24,0.08-0.39-0.1-0.42-0.32l-0.16-0.84c-0.06-0.27,0.08-0.4,0.24-0.45c0.16-0.06,1.34-0.37,2.56-0.37
					c2.33,0,2.82,1.21,2.82,3.25v4.03c0,0.19-0.16,0.36-0.36,0.36h-0.55c-0.13,0-0.23-0.05-0.32-0.26l-0.21-0.5
					c-0.44,0.42-1.18,0.94-2.35,0.94c-1.49,0-2.52-0.96-2.52-2.56C64.92,16.63,66,15.61,67.89,15.61z M67.94,19.01
					c0.66,0,1.25-0.52,1.34-0.79v-1.1c0,0-0.5-0.23-1.1-0.23c-0.86,0-1.33,0.4-1.33,1.07C66.86,18.59,67.25,19.01,67.94,19.01z"/>
				<path class="st0" d="M77.59,13.22c0-0.21,0.18-0.36,0.36-0.36h0.61c0.18,0,0.26,0.08,0.31,0.23l0.27,0.7
					c0.27-0.31,0.97-1.08,2.41-1.08c2.38,0,2.99,1.6,2.99,3.41v3.87c0,0.19-0.18,0.36-0.36,0.36h-1.31c-0.19,0-0.36-0.16-0.36-0.36
					v-3.87c0-0.97-0.39-1.57-1.29-1.57c-0.97,0-1.44,0.65-1.62,1.17v4.27c0,0.27-0.11,0.36-0.47,0.36h-1.2
					c-0.18,0-0.36-0.16-0.36-0.36V13.22z"/>
				<path class="st0" d="M94.9,12.7c1.17,0,2.07,0.5,2.78,1.26c0.16,0.16,0.08,0.37-0.08,0.53l-0.68,0.74
					c-0.16,0.18-0.34,0.1-0.49-0.05c-0.36-0.34-0.79-0.65-1.49-0.65c-1.17,0-1.97,0.91-1.97,2.06c0,1.16,0.79,2.07,1.96,2.07
					c0.83,0,1.26-0.45,1.59-0.83c0.11-0.13,0.34-0.16,0.47-0.05l0.73,0.61c0.18,0.16,0.26,0.34,0.13,0.53
					c-0.63,0.99-1.63,1.57-2.96,1.57c-2.18,0-3.95-1.67-3.95-3.92C90.94,14.4,92.69,12.7,94.9,12.7z"/>
				<path class="st0" d="M107.07,12.7c1.94,0,3.43,1.44,3.43,3.46c0,0.11-0.02,0.37-0.03,0.49c-0.02,0.19-0.19,0.34-0.36,0.34h-4.79
					c0.02,0.92,0.78,1.73,1.86,1.73c0.74,0,1.26-0.27,1.6-0.55c0.18-0.15,0.37-0.16,0.49,0l0.63,0.84c0.13,0.15,0.15,0.32-0.03,0.49
					c-0.65,0.55-1.57,1.02-2.78,1.02c-2.23,0-3.79-1.78-3.79-3.92C103.3,14.49,104.86,12.7,107.07,12.7z M108.47,15.66
					c-0.03-0.73-0.61-1.29-1.44-1.29c-0.91,0-1.49,0.55-1.59,1.29H108.47z"/>
			</g>
		</g>
	</g>
	<path class="st1" d="M18.5,5.22c-2.16,0-4.05,1.16-5.09,2.88c3.34,1.22,5.73,4.43,5.73,8.18c0,0.28-0.02,0.55-0.04,0.82
		c3.01-0.3,5.36-2.84,5.36-5.93C24.46,7.89,21.79,5.22,18.5,5.22z"/>
	<path class="st1" d="M10.42,9.48c-3.76,0-6.81,3.05-6.81,6.81c0,3.76,3.05,6.81,6.81,6.81s6.81-3.05,6.81-6.81
		C17.22,12.52,14.18,9.48,10.42,9.48z"/>
	<g>
		<path class="st1" d="M10.23,9.57c-3.76,0-6.81,3.05-6.81,6.81c0,3.76,3.05,6.81,6.81,6.81s6.81-3.05,6.81-6.81
			C17.04,12.62,13.99,9.57,10.23,9.57z"/>
		<rect x="6.57" y="15.4" class="st2" width="7.32" height="1.95"/>
		
			<rect x="6.57" y="15.4" transform="matrix(4.474471e-11 -1 1 4.474471e-11 -6.1468 26.6073)" class="st2" width="7.32" height="1.95"/>
	</g>
	<g>
		<defs>
			<circle id="SVGID_1_" cx="20.56" cy="7.55" r="6.06"/>
		</defs>
		<clipPath id="SVGID_2_">
			<use xlink:href="#SVGID_1_"  style="overflow:visible;"/>
		</clipPath>
		<rect x="14.32" y="10.2" class="st3" width="7.32" height="1.95"/>
	</g>
</g>
</svg>
